<svg viewBox="0 0 211 457" fill="none" xmlns="http://www.w3.org/2000/svg">
<path d="M143.312 16.7629C115.709 16.7628 90.6744 16.7629 68.1548 16.7629C66.7544 16.7629 63.9535 15.3985 63.9535 9.94115V4.09397C63.9535 3.11943 63.4867 0.683105 61.6194 0.683105H149.381C147.887 0.683105 147.513 3.11943 147.513 4.09397V9.94115C147.513 15.3011 144.712 16.6004 143.312 16.7629Z" fill="black"/>
<path d="M114.305 10.9157H96.6946C95.2667 10.9157 93.3628 10.3743 93.3628 8.20867C93.3628 7.43039 93.8388 6.04304 96.6946 6.04304H114.305C116.971 6.04304 117.637 7.48679 117.637 8.20867C117.637 10.3743 115.733 10.9157 114.305 10.9157Z" fill="#333333"/>
<path d="M2.77473 38.9813V38.9314L2.7729 38.8816C2.53957 32.5604 2.61226 23.6288 7.62661 16.2598C12.5044 9.09156 22.5896 2.7019 44.0355 2.70192H173.117C191.508 2.70195 199.89 8.22262 203.96 14.8714C208.23 21.8456 208.298 30.7804 208.298 38.9813V418.074C208.298 423.732 207.445 432.407 202.702 439.697C198.086 446.791 189.506 452.999 173.087 453.379H125.881H93.6103H31.8755C26.9603 453.379 19.581 450.963 13.4286 446.155C7.34184 441.399 2.77473 434.565 2.77473 425.87V38.9813Z" stroke="#013220" stroke-width="5.4038"/>
</svg>
