<svg viewBox="0 0 1302 881" fill="none" xmlns="http://www.w3.org/2000/svg">
<path fill-rule="evenodd" clip-rule="evenodd" d="M21 880H1281C1292.05 880 1301 871.046 1301 860V20C1301 8.95431 1292.05 0 1281 0H21C9.95431 0 1 8.95429 1 20V860C1 871.046 9.95431 880 21 880ZM11 840H1291V40H11V840Z" fill="black"/>
<path d="M1291 840V841H1292V840H1291ZM11 840H10V841H11V840ZM1291 40H1292V39H1291V40ZM11 40V39H10V40H11ZM1281 879H21V881H1281V879ZM1300 860C1300 870.493 1291.49 879 1281 879V881C1292.6 881 1302 871.598 1302 860H1300ZM1300 20V860H1302V20H1300ZM1281 1C1291.49 1 1300 9.50659 1300 20H1302C1302 8.40202 1292.6 -1 1281 -1V1ZM21 1H1281V-1H21V1ZM2 20C2 9.50657 10.5066 1 21 1V-1C9.40202 -1 0 8.402 0 20H2ZM2 860V20H0V860H2ZM21 879C10.5066 879 2 870.493 2 860H0C0 871.598 9.40202 881 21 881V879ZM1291 839H11V841H1291V839ZM1290 40V840H1292V40H1290ZM11 41H1291V39H11V41ZM12 840V40H10V840H12Z" fill="#808080"/>
<path d="M665.51 26H636.49C634.137 26 631 24.8889 631 20.4444C631 18.8472 631.784 16 636.49 16H665.51C669.902 16 671 18.963 671 20.4444C671 24.8889 667.863 26 665.51 26Z" fill="#333333"/>
</svg>
