<svg viewBox="0 0 409 308" fill="none" xmlns="http://www.w3.org/2000/svg">
<mask id="mask0_401_346" style="mask-type:alpha" maskUnits="userSpaceOnUse" x="0" y="27" width="409" height="236">
<rect y="27" width="409" height="236" fill="#D9D9D9"/>
</mask>
<g mask="url(#mask0_401_346)">
<g clip-path="url(#clip0_401_346)">
<path d="M279.338 106.176L272.825 106.177L274.531 90.8223L274.688 89.4057L273.68 90.4136L257.917 106.177L248.038 106.177L249.765 62.9828L256.149 62.9828L273.68 80.5141L274.657 81.4906L274.532 80.1152L272.813 61.2151C279.145 61.2148 295.476 61.2143 314.693 61.2143C324.406 61.2143 331.941 66.1243 337.433 72.3156C342.697 78.2501 346.052 85.3291 347.606 90.2663L309.39 90.2663H308.89V90.7663L308.89 107.944H298.783H298.272L298.283 108.455L301.808 267.043H281.6L279.838 106.671L279.832 106.176L279.338 106.176Z" fill="#DA4167" stroke="#DA4167"/>
</g>
<g clip-path="url(#clip1_401_346)">
<path d="M188.078 289.078C187.422 288.422 186.931 287.712 186.603 286.948C186.276 286.184 186.112 285.255 186.112 284.163V204.878C186.112 203.786 186.276 202.858 186.603 202.094C186.931 201.329 187.422 200.619 188.078 199.964C188.733 199.309 189.443 198.817 190.207 198.49C190.972 198.162 191.9 197.998 192.992 197.998L200.2 197.998H213.632H220.84C221.932 197.998 222.86 198.162 223.625 198.49C224.389 198.817 225.099 199.309 225.754 199.964C226.409 200.619 226.901 201.329 227.229 202.094C227.556 202.858 227.72 203.786 227.72 204.878L227.72 284.163C227.72 285.255 227.556 286.184 227.229 286.948C226.901 287.712 226.409 288.422 225.754 289.078C225.099 289.733 224.389 290.224 223.625 290.552C222.86 290.879 221.932 291.043 220.84 291.043H192.992C191.9 291.043 190.972 290.879 190.207 290.552C189.443 290.224 188.733 289.733 188.078 289.078ZM199.872 277.283H213.96L213.96 211.758H199.872L199.872 277.283Z" fill="#FF9F1C"/>
<path d="M199.872 112.816L199.872 170.15L200.2 197.998H213.632V170.15V112.816L222.969 103.479L222.969 62.526L190.535 62.526V103.479L199.872 112.816Z" fill="#FF9F1C"/>
</g>
<g clip-path="url(#clip2_401_346)">
<path d="M120.152 120.996L118.385 285.399L139.6 285.401V119.231C173.541 90.9463 153.741 67.3757 139.599 59.1259V90.9457L114.85 90.9457L114.85 59.1259C80.9092 84.5817 103.653 111.568 120.152 120.996Z" fill="#2176FF"/>
</g>
</g>
<path fill-rule="evenodd" clip-rule="evenodd" d="M350.868 238.013H67.5351V175.513H113.368V192.179H138.368V175.513H280.035V192.179H305.035V175.513H350.868V238.013Z" fill="#0E293D"/>
<path d="M67.5351 238.013H350.868V175.513H305.035V192.179H280.035V175.513H138.368V192.179H113.368V175.513H67.5351V238.013Z" fill="white"/>
<path fill-rule="evenodd" clip-rule="evenodd" d="M375.868 263.013H42.5351V150.513H67.5351H113.368H138.368H280.035H305.035H350.868H375.868V263.013ZM350.868 238.013H67.5351V175.513H113.368V192.179H138.368V175.513H280.035V192.179H305.035V175.513H350.868V238.013Z" fill="#0E293D"/>
<defs>
<clipPath id="clip0_401_346">
<rect width="240" height="240" fill="white" transform="translate(169.031 31.3086)"/>
</clipPath>
<clipPath id="clip1_401_346">
<rect width="240" height="240" fill="white" transform="translate(86.0306 56.3086)"/>
</clipPath>
<clipPath id="clip2_401_346">
<rect width="240" height="240" fill="white" transform="translate(8 50.2778)"/>
</clipPath>
</defs>
</svg>
