<svg width="86" height="41" viewBox="0 0 86 41" fill="none" xmlns="http://www.w3.org/2000/svg">
<path d="M1.38643 34.2418V32.3834L3.79056 31.9704V15.053L1.38643 14.64V12.7669H3.79056H7.66963L14.587 29.0648H14.6755L21.3717 12.7669H27.8466V14.64L25.4425 15.053V31.9704L27.8466 32.3834V34.2418H20.1328V32.3834L22.6696 31.9704V25.7463V16.7344L22.5959 16.7197L15.6195 33.4749H13.6873L6.47493 16.7492L6.40119 16.7639L6.50443 25.7463V31.9704L9.10031 32.3834V34.2418H1.38643ZM35.6378 34.5516C33.976 34.5516 32.7125 34.1484 31.8472 33.3421C30.9819 32.526 30.5493 31.3805 30.5493 29.9055C30.5493 28.8928 30.8246 28.0127 31.3753 27.2654C31.9357 26.5083 32.742 25.9232 33.7941 25.5103C34.8463 25.0875 36.1049 24.876 37.57 24.876H40.4166V23.3126C40.4166 22.349 40.1216 21.6017 39.5316 21.0707C38.9515 20.5398 38.1304 20.2743 37.0685 20.2743C36.3998 20.2743 35.8197 20.3578 35.3281 20.525C34.8364 20.6823 34.389 20.9036 33.9859 21.1887L33.6761 23.4159H31.4343V19.758C32.1521 19.1779 32.9878 18.7403 33.9416 18.4454C34.8954 18.1405 35.9525 17.9881 37.1127 17.9881C39.0498 17.9881 40.569 18.4503 41.6703 19.3746C42.7715 20.2989 43.3222 21.6214 43.3222 23.3421V31.0265C43.3222 31.233 43.3222 31.4346 43.3222 31.6312C43.332 31.8279 43.3468 32.0245 43.3664 32.2212L44.9151 32.3834V34.2418H40.7411C40.6526 33.8092 40.5837 33.4208 40.5346 33.0766C40.4854 32.7325 40.451 32.3883 40.4313 32.0442C39.8708 32.762 39.1678 33.3618 38.3222 33.8436C37.4864 34.3156 36.5916 34.5516 35.6378 34.5516ZM36.0655 32.1179C37.0291 32.1179 37.9092 31.8869 38.7057 31.4247C39.5021 30.9626 40.0724 30.407 40.4166 29.7581V26.8672H37.4667C36.1294 26.8672 35.1265 27.1868 34.4579 27.8259C33.7892 28.465 33.4549 29.1779 33.4549 29.9645C33.4549 30.6627 33.6712 31.1986 34.1039 31.5722C34.5365 31.936 35.1904 32.1179 36.0655 32.1179ZM47.2933 34.2418V32.3834L49.6974 31.9704V20.5693L47.2933 20.1563V18.2831H52.2933L52.544 20.3185L52.5735 20.5988C53.0258 19.7826 53.5814 19.1435 54.2402 18.6813C54.9088 18.2192 55.6709 17.9881 56.5263 17.9881C56.8311 17.9881 57.1409 18.0176 57.4555 18.0766C57.78 18.1258 58.0111 18.175 58.1487 18.2241L57.7653 20.9232L55.7446 20.8052C54.9776 20.7561 54.3336 20.9331 53.8125 21.3362C53.2913 21.7295 52.8882 22.2605 52.603 22.9291V31.9704L55.0071 32.3834V34.2418H47.2933ZM59.9664 34.2418V32.3834L62.3706 31.9704V20.5693L59.9664 20.1563V18.2831H65.2762V31.9704L67.6803 32.3834V34.2418H59.9664ZM62.2231 14.3451V11.233H65.2762V14.3451H62.2231ZM77.0496 34.5516C75.5747 34.5516 74.3014 34.2074 73.2296 33.5191C72.1676 32.821 71.3466 31.8623 70.7665 30.643C70.1863 29.4139 69.8962 28.0127 69.8962 26.4395V26.115C69.8962 24.5417 70.1863 23.1455 70.7665 21.9262C71.3466 20.6971 72.1676 19.7335 73.2296 19.0353C74.3014 18.3372 75.5649 17.9881 77.0201 17.9881C78.4951 17.9881 79.7635 18.3372 80.8255 19.0353C81.8972 19.7335 82.7232 20.6922 83.3033 21.9114C83.8835 23.1307 84.1735 24.5319 84.1735 26.115V26.4395C84.1735 28.0226 83.8835 29.4287 83.3033 30.6578C82.7232 31.877 81.9022 32.8308 80.8402 33.5191C79.7783 34.2074 78.5147 34.5516 77.0496 34.5516ZM77.0496 32.2802C77.9739 32.2802 78.7458 32.0294 79.3653 31.528C79.9946 31.0167 80.4666 30.3234 80.7812 29.4483C81.1057 28.5634 81.2679 27.5604 81.2679 26.4395V26.115C81.2679 24.994 81.1057 23.996 80.7812 23.1209C80.4666 22.2359 79.9946 21.5427 79.3653 21.0412C78.736 20.5299 77.9543 20.2743 77.0201 20.2743C76.0959 20.2743 75.3191 20.5299 74.6898 21.0412C74.0605 21.5427 73.5885 22.2359 73.2738 23.1209C72.9592 23.996 72.8019 24.994 72.8019 26.115V26.4395C72.8019 27.5604 72.9592 28.5634 73.2738 29.4483C73.5885 30.3234 74.0605 31.0167 74.6898 31.528C75.3289 32.0294 76.1155 32.2802 77.0496 32.2802Z" fill="white"/>
<path d="M1.38643 34.2418H1.15044V34.4778H1.38643V34.2418ZM1.38643 32.3834L1.34648 32.1508L1.15044 32.1845V32.3834H1.38643ZM3.79056 31.9704L3.83052 32.203L4.02655 32.1694V31.9704H3.79056ZM3.79056 15.053H4.02655V14.8541L3.83052 14.8204L3.79056 15.053ZM1.38643 14.64H1.15044V14.839L1.34648 14.8726L1.38643 14.64ZM1.38643 12.7669V12.5309H1.15044V12.7669H1.38643ZM7.66963 12.7669L7.88686 12.6747L7.82583 12.5309H7.66963V12.7669ZM14.587 29.0648L14.3698 29.157L14.4308 29.3008H14.587V29.0648ZM14.6755 29.0648V29.3008H14.8337L14.8938 29.1545L14.6755 29.0648ZM21.3717 12.7669V12.5309H21.2135L21.1534 12.6772L21.3717 12.7669ZM27.8466 12.7669H28.0826V12.5309H27.8466V12.7669ZM27.8466 14.64L27.8866 14.8726L28.0826 14.839V14.64H27.8466ZM25.4425 15.053L25.4026 14.8204L25.2065 14.8541V15.053H25.4425ZM25.4425 31.9704H25.2065V32.1694L25.4026 32.203L25.4425 31.9704ZM27.8466 32.3834H28.0826V32.1845L27.8866 32.1508L27.8466 32.3834ZM27.8466 34.2418V34.4778H28.0826V34.2418H27.8466ZM20.1328 34.2418H19.8968V34.4778H20.1328V34.2418ZM20.1328 32.3834L20.0948 32.1505L19.8968 32.1827V32.3834H20.1328ZM22.6696 31.9704L22.7076 32.2034L22.9056 32.1711V31.9704H22.6696ZM22.6696 16.7344H22.9056V16.541L22.7159 16.503L22.6696 16.7344ZM22.5959 16.7197L22.6422 16.4883L22.4524 16.4503L22.378 16.629L22.5959 16.7197ZM15.6195 33.4749V33.7109H15.7769L15.8373 33.5656L15.6195 33.4749ZM13.6873 33.4749L13.4706 33.5683L13.5321 33.7109H13.6873V33.4749ZM6.47493 16.7492L6.69163 16.6557L6.61599 16.4803L6.42865 16.5178L6.47493 16.7492ZM6.40119 16.7639L6.35491 16.5325L6.16296 16.5709L6.16521 16.7667L6.40119 16.7639ZM6.50443 25.7463H6.74044L6.74041 25.7435L6.50443 25.7463ZM6.50443 31.9704H6.26844V32.1719L6.46735 32.2035L6.50443 31.9704ZM9.10031 32.3834H9.33629V32.182L9.13738 32.1504L9.10031 32.3834ZM9.10031 34.2418V34.4778H9.33629V34.2418H9.10031ZM1.62242 34.2418V32.3834H1.15044V34.2418H1.62242ZM1.42638 32.616L3.83052 32.203L3.75061 31.7379L1.34648 32.1508L1.42638 32.616ZM4.02655 31.9704V15.053H3.55458V31.9704H4.02655ZM3.83052 14.8204L1.42638 14.4075L1.34648 14.8726L3.75061 15.2856L3.83052 14.8204ZM1.62242 14.64V12.7669H1.15044V14.64H1.62242ZM1.38643 13.0029H3.79056V12.5309H1.38643V13.0029ZM3.79056 13.0029H7.66963V12.5309H3.79056V13.0029ZM7.45239 12.8591L14.3698 29.157L14.8043 28.9726L7.88686 12.6747L7.45239 12.8591ZM14.587 29.3008H14.6755V28.8289H14.587V29.3008ZM14.8938 29.1545L21.59 12.8566L21.1534 12.6772L14.4572 28.9752L14.8938 29.1545ZM21.3717 13.0029H27.8466V12.5309H21.3717V13.0029ZM27.6107 12.7669V14.64H28.0826V12.7669H27.6107ZM27.8067 14.4075L25.4026 14.8204L25.4825 15.2856L27.8866 14.8726L27.8067 14.4075ZM25.2065 15.053V31.9704H25.6785V15.053H25.2065ZM25.4026 32.203L27.8067 32.616L27.8866 32.1508L25.4825 31.7379L25.4026 32.203ZM27.6107 32.3834V34.2418H28.0826V32.3834H27.6107ZM27.8466 34.0058H20.1328V34.4778H27.8466V34.0058ZM20.3688 34.2418V32.3834H19.8968V34.2418H20.3688ZM20.1707 32.6163L22.7076 32.2034L22.6317 31.7375L20.0948 32.1505L20.1707 32.6163ZM22.9056 31.9704V25.7463H22.4337V31.9704H22.9056ZM22.9056 25.7463V16.7344H22.4337V25.7463H22.9056ZM22.7159 16.503L22.6422 16.4883L22.5496 16.9511L22.6234 16.9658L22.7159 16.503ZM22.378 16.629L15.4016 33.3842L15.8373 33.5656L22.8138 16.8104L22.378 16.629ZM15.6195 33.2389H13.6873V33.7109H15.6195V33.2389ZM13.904 33.3814L6.69163 16.6557L6.25823 16.8426L13.4706 33.5683L13.904 33.3814ZM6.42865 16.5178L6.35491 16.5325L6.44747 16.9953L6.52121 16.9806L6.42865 16.5178ZM6.16521 16.7667L6.26846 25.749L6.74041 25.7435L6.63716 16.7612L6.16521 16.7667ZM6.26844 25.7463V31.9704H6.74042V25.7463H6.26844ZM6.46735 32.2035L9.06323 32.6165L9.13738 32.1504L6.54151 31.7374L6.46735 32.2035ZM8.86432 32.3834V34.2418H9.33629V32.3834H8.86432ZM9.10031 34.0058H1.38643V34.4778H9.10031V34.0058ZM31.8472 33.3421L31.6853 33.5138L31.6864 33.5148L31.8472 33.3421ZM31.3753 27.2654L31.1856 27.125L31.1853 27.1254L31.3753 27.2654ZM33.7941 25.5103L33.8804 25.7299L33.8821 25.7292L33.7941 25.5103ZM40.4166 24.876V25.112H40.6526V24.876H40.4166ZM39.5316 21.0707L39.3723 21.2448L39.3737 21.2461L39.5316 21.0707ZM35.3281 20.525L35.4 20.7498L35.404 20.7484L35.3281 20.525ZM33.9859 21.1887L33.8496 20.9961L33.7662 21.055L33.7521 21.1562L33.9859 21.1887ZM33.6761 23.4159V23.6519H33.8816L33.9099 23.4484L33.6761 23.4159ZM31.4343 23.4159H31.1983V23.6519H31.4343V23.4159ZM31.4343 19.758L31.2859 19.5745L31.1983 19.6453V19.758H31.4343ZM33.9416 18.4454L34.0114 18.6708L34.0135 18.6701L33.9416 18.4454ZM41.6703 19.3746L41.5185 19.5553L41.6703 19.3746ZM43.3222 31.6312H43.0859L43.0865 31.643L43.3222 31.6312ZM43.3664 32.2212L43.1316 32.2447L43.1507 32.4359L43.3418 32.4559L43.3664 32.2212ZM44.9151 32.3834H45.1511V32.1709L44.9397 32.1487L44.9151 32.3834ZM44.9151 34.2418V34.4778H45.1511V34.2418H44.9151ZM40.7411 34.2418L40.5098 34.2891L40.5484 34.4778H40.7411V34.2418ZM40.4313 32.0442L40.6669 32.0307L40.6312 31.4048L40.2453 31.899L40.4313 32.0442ZM38.3222 33.8436L38.4382 34.0491L38.439 34.0486L38.3222 33.8436ZM40.4166 29.7581L40.6251 29.8686L40.6526 29.8168V29.7581H40.4166ZM40.4166 26.8672H40.6526V26.6312H40.4166V26.8672ZM34.1039 31.5722L33.9496 31.7508L33.952 31.7528L34.1039 31.5722ZM35.6378 34.3156C34.0115 34.3156 32.8147 33.9211 32.0081 33.1695L31.6864 33.5148C32.6103 34.3757 33.9406 34.7876 35.6378 34.7876V34.3156ZM32.0092 33.1705C31.202 32.4092 30.7853 31.3322 30.7853 29.9055H30.3133C30.3133 31.4288 30.7619 32.6428 31.6853 33.5138L32.0092 33.1705ZM30.7853 29.9055C30.7853 28.9383 31.0472 28.1084 31.5652 27.4054L31.1853 27.1254C30.602 27.917 30.3133 28.8472 30.3133 29.9055H30.7853ZM31.5649 27.4058C32.0942 26.6909 32.8612 26.13 33.8804 25.7299L33.7079 25.2906C32.6229 25.7165 31.7773 26.3257 31.1856 27.125L31.5649 27.4058ZM33.8821 25.7292C34.8994 25.3204 36.1266 25.112 37.57 25.112V24.6401C36.0831 24.6401 34.7931 24.8545 33.7061 25.2913L33.8821 25.7292ZM37.57 25.112H40.4166V24.6401H37.57V25.112ZM40.6526 24.876V23.3126H40.1806V24.876H40.6526ZM40.6526 23.3126C40.6526 22.2976 40.3397 21.4805 39.6895 20.8953L39.3737 21.2461C39.9035 21.7229 40.1806 22.4004 40.1806 23.3126H40.6526ZM39.6909 20.8966C39.054 20.3137 38.1684 20.0383 37.0685 20.0383V20.5103C38.0924 20.5103 38.849 20.7659 39.3723 21.2448L39.6909 20.8966ZM37.0685 20.0383C36.3811 20.0383 35.7741 20.1241 35.2521 20.3016L35.404 20.7484C35.8653 20.5916 36.4186 20.5103 37.0685 20.5103V20.0383ZM35.2561 20.3002C34.7426 20.4646 34.2733 20.6964 33.8496 20.9961L34.1222 21.3814C34.5047 21.1108 34.9303 20.9001 35.4 20.7498L35.2561 20.3002ZM33.7521 21.1562L33.4424 23.3834L33.9099 23.4484L34.2196 21.2212L33.7521 21.1562ZM33.6761 23.1799H31.4343V23.6519H33.6761V23.1799ZM31.6702 23.4159V19.758H31.1983V23.4159H31.6702ZM31.5826 19.9416C32.2752 19.3818 33.0838 18.9577 34.0114 18.6708L33.8719 18.2199C32.8918 18.523 32.0289 18.974 31.2859 19.5745L31.5826 19.9416ZM34.0135 18.6701C34.9407 18.3738 35.973 18.2241 37.1127 18.2241V17.7521C35.9319 17.7521 34.8502 17.9073 33.8698 18.2206L34.0135 18.6701ZM37.1127 18.2241C39.0137 18.2241 40.4725 18.6774 41.5185 19.5553L41.822 19.1938C40.6654 18.2231 39.0859 17.7521 37.1127 17.7521V18.2241ZM41.5185 19.5553C42.5558 20.4259 43.0862 21.676 43.0862 23.3421H43.5582C43.5582 21.5668 42.9873 20.1718 41.822 19.1938L41.5185 19.5553ZM43.0862 23.3421V31.0265H43.5582V23.3421H43.0862ZM43.0862 31.0265C43.0862 31.0269 43.0862 31.0273 43.0862 31.0277C43.0862 31.0281 43.0862 31.0285 43.0862 31.0289C43.0862 31.0293 43.0862 31.0297 43.0862 31.0301C43.0862 31.0305 43.0862 31.0309 43.0862 31.0313C43.0862 31.0317 43.0862 31.0321 43.0862 31.0325C43.0862 31.0329 43.0862 31.0333 43.0862 31.0338C43.0862 31.0342 43.0862 31.0346 43.0862 31.035C43.0862 31.0354 43.0862 31.0358 43.0862 31.0362C43.0862 31.0366 43.0862 31.037 43.0862 31.0374C43.0862 31.0378 43.0862 31.0382 43.0862 31.0386C43.0862 31.039 43.0862 31.0394 43.0862 31.0398C43.0862 31.0402 43.0862 31.0406 43.0862 31.041C43.0862 31.0414 43.0862 31.0418 43.0862 31.0422C43.0862 31.0426 43.0862 31.043 43.0862 31.0434C43.0862 31.0438 43.0862 31.0442 43.0862 31.0446C43.0862 31.045 43.0862 31.0454 43.0862 31.0458C43.0862 31.0462 43.0862 31.0466 43.0862 31.047C43.0862 31.0474 43.0862 31.0479 43.0862 31.0483C43.0862 31.0487 43.0862 31.0491 43.0862 31.0495C43.0862 31.0499 43.0862 31.0503 43.0862 31.0507C43.0862 31.0511 43.0862 31.0515 43.0862 31.0519C43.0862 31.0523 43.0862 31.0527 43.0862 31.0531C43.0862 31.0535 43.0862 31.0539 43.0862 31.0543C43.0862 31.0547 43.0862 31.0551 43.0862 31.0555C43.0862 31.0559 43.0862 31.0563 43.0862 31.0567C43.0862 31.0571 43.0862 31.0575 43.0862 31.0579C43.0862 31.0583 43.0862 31.0587 43.0862 31.0591C43.0862 31.0595 43.0862 31.0599 43.0862 31.0603C43.0862 31.0607 43.0862 31.0611 43.0862 31.0615C43.0862 31.0619 43.0862 31.0623 43.0862 31.0627C43.0862 31.0631 43.0862 31.0635 43.0862 31.0639C43.0862 31.0643 43.0862 31.0648 43.0862 31.0652C43.0862 31.0656 43.0862 31.066 43.0862 31.0664C43.0862 31.0668 43.0862 31.0672 43.0862 31.0676C43.0862 31.068 43.0862 31.0684 43.0862 31.0688C43.0862 31.0692 43.0862 31.0696 43.0862 31.07C43.0862 31.0704 43.0862 31.0708 43.0862 31.0712C43.0862 31.0716 43.0862 31.072 43.0862 31.0724C43.0862 31.0728 43.0862 31.0732 43.0862 31.0736C43.0862 31.074 43.0862 31.0744 43.0862 31.0748C43.0862 31.0752 43.0862 31.0756 43.0862 31.076C43.0862 31.0764 43.0862 31.0768 43.0862 31.0772C43.0862 31.0776 43.0862 31.078 43.0862 31.0784C43.0862 31.0788 43.0862 31.0792 43.0862 31.0796C43.0862 31.08 43.0862 31.0804 43.0862 31.0808C43.0862 31.0812 43.0862 31.0816 43.0862 31.082C43.0862 31.0824 43.0862 31.0828 43.0862 31.0832C43.0862 31.0836 43.0862 31.084 43.0862 31.0844C43.0862 31.0848 43.0862 31.0852 43.0862 31.0856C43.0862 31.086 43.0862 31.0864 43.0862 31.0868C43.0862 31.0872 43.0862 31.0877 43.0862 31.0881C43.0862 31.0885 43.0862 31.0889 43.0862 31.0893C43.0862 31.0897 43.0862 31.0901 43.0862 31.0905C43.0862 31.0909 43.0862 31.0913 43.0862 31.0917C43.0862 31.0921 43.0862 31.0925 43.0862 31.0929C43.0862 31.0933 43.0862 31.0937 43.0862 31.0941C43.0862 31.0945 43.0862 31.0949 43.0862 31.0953C43.0862 31.0957 43.0862 31.0961 43.0862 31.0965C43.0862 31.0969 43.0862 31.0973 43.0862 31.0977C43.0862 31.0981 43.0862 31.0985 43.0862 31.0989C43.0862 31.0993 43.0862 31.0997 43.0862 31.1001C43.0862 31.1005 43.0862 31.1009 43.0862 31.1013C43.0862 31.1017 43.0862 31.1021 43.0862 31.1025C43.0862 31.1029 43.0862 31.1033 43.0862 31.1037C43.0862 31.1041 43.0862 31.1045 43.0862 31.1049C43.0862 31.1053 43.0862 31.1057 43.0862 31.1061C43.0862 31.1065 43.0862 31.1069 43.0862 31.1073C43.0862 31.1077 43.0862 31.1081 43.0862 31.1085C43.0862 31.1089 43.0862 31.1093 43.0862 31.1097C43.0862 31.1101 43.0862 31.1105 43.0862 31.1109C43.0862 31.1113 43.0862 31.1117 43.0862 31.1121C43.0862 31.1125 43.0862 31.1129 43.0862 31.1133C43.0862 31.1137 43.0862 31.1141 43.0862 31.1145C43.0862 31.1149 43.0862 31.1153 43.0862 31.1157C43.0862 31.1161 43.0862 31.1165 43.0862 31.1169C43.0862 31.1173 43.0862 31.1177 43.0862 31.1181C43.0862 31.1185 43.0862 31.1189 43.0862 31.1193C43.0862 31.1197 43.0862 31.1201 43.0862 31.1205C43.0862 31.1209 43.0862 31.1213 43.0862 31.1217C43.0862 31.1221 43.0862 31.1225 43.0862 31.1229C43.0862 31.1233 43.0862 31.1237 43.0862 31.1241C43.0862 31.1245 43.0862 31.1249 43.0862 31.1253C43.0862 31.1257 43.0862 31.1261 43.0862 31.1265C43.0862 31.1269 43.0862 31.1273 43.0862 31.1277C43.0862 31.1281 43.0862 31.1285 43.0862 31.1289C43.0862 31.1293 43.0862 31.1297 43.0862 31.1301C43.0862 31.1305 43.0862 31.1309 43.0862 31.1313C43.0862 31.1317 43.0862 31.1321 43.0862 31.1325C43.0862 31.1329 43.0862 31.1333 43.0862 31.1337C43.0862 31.1341 43.0862 31.1345 43.0862 31.1349C43.0862 31.1353 43.0862 31.1357 43.0862 31.1361C43.0862 31.1365 43.0862 31.1369 43.0862 31.1373C43.0862 31.1377 43.0862 31.1381 43.0862 31.1385C43.0862 31.1389 43.0862 31.1393 43.0862 31.1397C43.0862 31.1401 43.0862 31.1405 43.0862 31.1409C43.0862 31.1413 43.0862 31.1417 43.0862 31.1421C43.0862 31.1425 43.0862 31.1429 43.0862 31.1433C43.0862 31.1437 43.0862 31.1441 43.0862 31.1445C43.0862 31.1449 43.0862 31.1453 43.0862 31.1457C43.0862 31.1461 43.0862 31.1465 43.0862 31.1469C43.0862 31.1473 43.0862 31.1477 43.0862 31.1481C43.0862 31.1485 43.0862 31.1489 43.0862 31.1493C43.0862 31.1497 43.0862 31.1501 43.0862 31.1505C43.0862 31.1509 43.0862 31.1513 43.0862 31.1517C43.0862 31.1521 43.0862 31.1525 43.0862 31.1529C43.0862 31.1533 43.0862 31.1537 43.0862 31.1541C43.0862 31.1545 43.0862 31.1549 43.0862 31.1553C43.0862 31.1557 43.0862 31.1561 43.0862 31.1565C43.0862 31.1569 43.0862 31.1573 43.0862 31.1577C43.0862 31.1581 43.0862 31.1585 43.0862 31.1589C43.0862 31.1593 43.0862 31.1597 43.0862 31.1601C43.0862 31.1605 43.0862 31.1609 43.0862 31.1613C43.0862 31.1617 43.0862 31.1621 43.0862 31.1625C43.0862 31.1629 43.0862 31.1633 43.0862 31.1637C43.0862 31.1641 43.0862 31.1645 43.0862 31.1649C43.0862 31.1653 43.0862 31.1657 43.0862 31.1661C43.0862 31.1665 43.0862 31.1669 43.0862 31.1673C43.0862 31.1677 43.0862 31.1681 43.0862 31.1685C43.0862 31.1689 43.0862 31.1693 43.0862 31.1697C43.0862 31.1701 43.0862 31.1705 43.0862 31.1709C43.0862 31.1713 43.0862 31.1717 43.0862 31.1721C43.0862 31.1725 43.0862 31.1729 43.0862 31.1733C43.0862 31.1737 43.0862 31.1741 43.0862 31.1745C43.0862 31.1749 43.0862 31.1753 43.0862 31.1757C43.0862 31.1761 43.0862 31.1765 43.0862 31.1769C43.0862 31.1773 43.0862 31.1776 43.0862 31.178C43.0862 31.1784 43.0862 31.1788 43.0862 31.1792C43.0862 31.1796 43.0862 31.18 43.0862 31.1804C43.0862 31.1808 43.0862 31.1812 43.0862 31.1816C43.0862 31.182 43.0862 31.1824 43.0862 31.1828C43.0862 31.1832 43.0862 31.1836 43.0862 31.184C43.0862 31.1844 43.0862 31.1848 43.0862 31.1852C43.0862 31.1856 43.0862 31.186 43.0862 31.1864C43.0862 31.1868 43.0862 31.1872 43.0862 31.1876C43.0862 31.188 43.0862 31.1884 43.0862 31.1888C43.0862 31.1892 43.0862 31.1896 43.0862 31.19C43.0862 31.1904 43.0862 31.1908 43.0862 31.1912C43.0862 31.1916 43.0862 31.192 43.0862 31.1924C43.0862 31.1928 43.0862 31.1932 43.0862 31.1936C43.0862 31.194 43.0862 31.1944 43.0862 31.1948C43.0862 31.1952 43.0862 31.1956 43.0862 31.196C43.0862 31.1964 43.0862 31.1968 43.0862 31.1972C43.0862 31.1976 43.0862 31.198 43.0862 31.1984C43.0862 31.1988 43.0862 31.1992 43.0862 31.1996C43.0862 31.2 43.0862 31.2003 43.0862 31.2007C43.0862 31.2011 43.0862 31.2015 43.0862 31.2019C43.0862 31.2023 43.0862 31.2027 43.0862 31.2031C43.0862 31.2035 43.0862 31.2039 43.0862 31.2043C43.0862 31.2047 43.0862 31.2051 43.0862 31.2055C43.0862 31.2059 43.0862 31.2063 43.0862 31.2067C43.0862 31.2071 43.0862 31.2075 43.0862 31.2079C43.0862 31.2083 43.0862 31.2087 43.0862 31.2091C43.0862 31.2095 43.0862 31.2099 43.0862 31.2103C43.0862 31.2107 43.0862 31.2111 43.0862 31.2115C43.0862 31.2119 43.0862 31.2123 43.0862 31.2127C43.0862 31.2131 43.0862 31.2135 43.0862 31.2139C43.0862 31.2143 43.0862 31.2147 43.0862 31.2151C43.0862 31.2155 43.0862 31.2159 43.0862 31.2163C43.0862 31.2167 43.0862 31.217 43.0862 31.2174C43.0862 31.2178 43.0862 31.2182 43.0862 31.2186C43.0862 31.219 43.0862 31.2194 43.0862 31.2198C43.0862 31.2202 43.0862 31.2206 43.0862 31.221C43.0862 31.2214 43.0862 31.2218 43.0862 31.2222C43.0862 31.2226 43.0862 31.223 43.0862 31.2234C43.0862 31.2238 43.0862 31.2242 43.0862 31.2246C43.0862 31.225 43.0862 31.2254 43.0862 31.2258C43.0862 31.2262 43.0862 31.2266 43.0862 31.227C43.0862 31.2274 43.0862 31.2278 43.0862 31.2282C43.0862 31.2286 43.0862 31.229 43.0862 31.2294C43.0862 31.2298 43.0862 31.2302 43.0862 31.2306C43.0862 31.2309 43.0862 31.2313 43.0862 31.2317C43.0862 31.2321 43.0862 31.2325 43.0862 31.2329C43.0862 31.2333 43.0862 31.2337 43.0862 31.2341C43.0862 31.2345 43.0862 31.2349 43.0862 31.2353C43.0862 31.2357 43.0862 31.2361 43.0862 31.2365C43.0862 31.2369 43.0862 31.2373 43.0862 31.2377C43.0862 31.2381 43.0862 31.2385 43.0862 31.2389C43.0862 31.2393 43.0862 31.2397 43.0862 31.2401C43.0862 31.2405 43.0862 31.2409 43.0862 31.2413C43.0862 31.2417 43.0862 31.2421 43.0862 31.2425C43.0862 31.2428 43.0862 31.2432 43.0862 31.2436C43.0862 31.244 43.0862 31.2444 43.0862 31.2448C43.0862 31.2452 43.0862 31.2456 43.0862 31.246C43.0862 31.2464 43.0862 31.2468 43.0862 31.2472C43.0862 31.2476 43.0862 31.248 43.0862 31.2484C43.0862 31.2488 43.0862 31.2492 43.0862 31.2496C43.0862 31.25 43.0862 31.2504 43.0862 31.2508C43.0862 31.2512 43.0862 31.2516 43.0862 31.252C43.0862 31.2524 43.0862 31.2528 43.0862 31.2532C43.0862 31.2536 43.0862 31.2539 43.0862 31.2543C43.0862 31.2547 43.0862 31.2551 43.0862 31.2555C43.0862 31.2559 43.0862 31.2563 43.0862 31.2567C43.0862 31.2571 43.0862 31.2575 43.0862 31.2579C43.0862 31.2583 43.0862 31.2587 43.0862 31.2591C43.0862 31.2595 43.0862 31.2599 43.0862 31.2603C43.0862 31.2607 43.0862 31.2611 43.0862 31.2615C43.0862 31.2619 43.0862 31.2623 43.0862 31.2627C43.0862 31.2631 43.0862 31.2635 43.0862 31.2638C43.0862 31.2642 43.0862 31.2646 43.0862 31.265C43.0862 31.2654 43.0862 31.2658 43.0862 31.2662C43.0862 31.2666 43.0862 31.267 43.0862 31.2674C43.0862 31.2678 43.0862 31.2682 43.0862 31.2686C43.0862 31.269 43.0862 31.2694 43.0862 31.2698C43.0862 31.2702 43.0862 31.2706 43.0862 31.271C43.0862 31.2714 43.0862 31.2718 43.0862 31.2722C43.0862 31.2726 43.0862 31.273 43.0862 31.2733C43.0862 31.2737 43.0862 31.2741 43.0862 31.2745C43.0862 31.2749 43.0862 31.2753 43.0862 31.2757C43.0862 31.2761 43.0862 31.2765 43.0862 31.2769C43.0862 31.2773 43.0862 31.2777 43.0862 31.2781C43.0862 31.2785 43.0862 31.2789 43.0862 31.2793C43.0862 31.2797 43.0862 31.2801 43.0862 31.2805C43.0862 31.2809 43.0862 31.2813 43.0862 31.2817C43.0862 31.282 43.0862 31.2824 43.0862 31.2828C43.0862 31.2832 43.0862 31.2836 43.0862 31.284C43.0862 31.2844 43.0862 31.2848 43.0862 31.2852C43.0862 31.2856 43.0862 31.286 43.0862 31.2864C43.0862 31.2868 43.0862 31.2872 43.0862 31.2876C43.0862 31.288 43.0862 31.2884 43.0862 31.2888C43.0862 31.2892 43.0862 31.2896 43.0862 31.2899C43.0862 31.2903 43.0862 31.2907 43.0862 31.2911C43.0862 31.2915 43.0862 31.2919 43.0862 31.2923C43.0862 31.2927 43.0862 31.2931 43.0862 31.2935C43.0862 31.2939 43.0862 31.2943 43.0862 31.2947C43.0862 31.2951 43.0862 31.2955 43.0862 31.2959C43.0862 31.2963 43.0862 31.2967 43.0862 31.2971C43.0862 31.2975 43.0862 31.2978 43.0862 31.2982C43.0862 31.2986 43.0862 31.299 43.0862 31.2994C43.0862 31.2998 43.0862 31.3002 43.0862 31.3006C43.0862 31.301 43.0862 31.3014 43.0862 31.3018C43.0862 31.3022 43.0862 31.3026 43.0862 31.303C43.0862 31.3034 43.0862 31.3038 43.0862 31.3042C43.0862 31.3046 43.0862 31.305 43.0862 31.3053C43.0862 31.3057 43.0862 31.3061 43.0862 31.3065C43.0862 31.3069 43.0862 31.3073 43.0862 31.3077C43.0862 31.3081 43.0862 31.3085 43.0862 31.3089C43.0862 31.3093 43.0862 31.3097 43.0862 31.3101C43.0862 31.3105 43.0862 31.3109 43.0862 31.3113C43.0862 31.3117 43.0862 31.3121 43.0862 31.3124C43.0862 31.3128 43.0862 31.3132 43.0862 31.3136C43.0862 31.314 43.0862 31.3144 43.0862 31.3148C43.0862 31.3152 43.0862 31.3156 43.0862 31.316C43.0862 31.3164 43.0862 31.3168 43.0862 31.3172C43.0862 31.3176 43.0862 31.318 43.0862 31.3184C43.0862 31.3188 43.0862 31.3191 43.0862 31.3195C43.0862 31.3199 43.0862 31.3203 43.0862 31.3207C43.0862 31.3211 43.0862 31.3215 43.0862 31.3219C43.0862 31.3223 43.0862 31.3227 43.0862 31.3231C43.0862 31.3235 43.0862 31.3239 43.0862 31.3243C43.0862 31.3247 43.0862 31.3251 43.0862 31.3255C43.0862 31.3258 43.0862 31.3262 43.0862 31.3266C43.0862 31.327 43.0862 31.3274 43.0862 31.3278C43.0862 31.3282 43.0862 31.3286 43.0862 31.329C43.0862 31.3294 43.0862 31.3298 43.0862 31.3302C43.0862 31.3306 43.0862 31.331 43.0862 31.3314C43.0862 31.3318 43.0862 31.3321 43.0862 31.3325C43.0862 31.3329 43.0862 31.3333 43.0862 31.3337C43.0862 31.3341 43.0862 31.3345 43.0862 31.3349C43.0862 31.3353 43.0862 31.3357 43.0862 31.3361C43.0862 31.3365 43.0862 31.3369 43.0862 31.3373C43.0862 31.3377 43.0862 31.3381 43.0862 31.3384C43.0862 31.3388 43.0862 31.3392 43.0862 31.3396C43.0862 31.34 43.0862 31.3404 43.0862 31.3408C43.0862 31.3412 43.0862 31.3416 43.0862 31.342C43.0862 31.3424 43.0862 31.3428 43.0862 31.3432C43.0862 31.3436 43.0862 31.344 43.0862 31.3443C43.0862 31.3447 43.0862 31.3451 43.0862 31.3455C43.0862 31.3459 43.0862 31.3463 43.0862 31.3467C43.0862 31.3471 43.0862 31.3475 43.0862 31.3479C43.0862 31.3483 43.0862 31.3487 43.0862 31.3491C43.0862 31.3495 43.0862 31.3499 43.0862 31.3502C43.0862 31.3506 43.0862 31.351 43.0862 31.3514C43.0862 31.3518 43.0862 31.3522 43.0862 31.3526C43.0862 31.353 43.0862 31.3534 43.0862 31.3538C43.0862 31.3542 43.0862 31.3546 43.0862 31.355C43.0862 31.3554 43.0862 31.3557 43.0862 31.3561C43.0862 31.3565 43.0862 31.3569 43.0862 31.3573C43.0862 31.3577 43.0862 31.3581 43.0862 31.3585C43.0862 31.3589 43.0862 31.3593 43.0862 31.3597C43.0862 31.3601 43.0862 31.3605 43.0862 31.3609C43.0862 31.3612 43.0862 31.3616 43.0862 31.362C43.0862 31.3624 43.0862 31.3628 43.0862 31.3632C43.0862 31.3636 43.0862 31.364 43.0862 31.3644C43.0862 31.3648 43.0862 31.3652 43.0862 31.3656C43.0862 31.366 43.0862 31.3664 43.0862 31.3667C43.0862 31.3671 43.0862 31.3675 43.0862 31.3679C43.0862 31.3683 43.0862 31.3687 43.0862 31.3691C43.0862 31.3695 43.0862 31.3699 43.0862 31.3703C43.0862 31.3707 43.0862 31.3711 43.0862 31.3715C43.0862 31.3718 43.0862 31.3722 43.0862 31.3726C43.0862 31.373 43.0862 31.3734 43.0862 31.3738C43.0862 31.3742 43.0862 31.3746 43.0862 31.375C43.0862 31.3754 43.0862 31.3758 43.0862 31.3762C43.0862 31.3766 43.0862 31.3769 43.0862 31.3773C43.0862 31.3777 43.0862 31.3781 43.0862 31.3785C43.0862 31.3789 43.0862 31.3793 43.0862 31.3797C43.0862 31.3801 43.0862 31.3805 43.0862 31.3809C43.0862 31.3813 43.0862 31.3817 43.0862 31.382C43.0862 31.3824 43.0862 31.3828 43.0862 31.3832C43.0862 31.3836 43.0862 31.384 43.0862 31.3844C43.0862 31.3848 43.0862 31.3852 43.0862 31.3856C43.0862 31.386 43.0862 31.3864 43.0862 31.3868C43.0862 31.3871 43.0862 31.3875 43.0862 31.3879C43.0862 31.3883 43.0862 31.3887 43.0862 31.3891C43.0862 31.3895 43.0862 31.3899 43.0862 31.3903C43.0862 31.3907 43.0862 31.3911 43.0862 31.3915C43.0862 31.3918 43.0862 31.3922 43.0862 31.3926C43.0862 31.393 43.0862 31.3934 43.0862 31.3938C43.0862 31.3942 43.0862 31.3946 43.0862 31.395C43.0862 31.3954 43.0862 31.3958 43.0862 31.3962C43.0862 31.3965 43.0862 31.3969 43.0862 31.3973C43.0862 31.3977 43.0862 31.3981 43.0862 31.3985C43.0862 31.3989 43.0862 31.3993 43.0862 31.3997C43.0862 31.4001 43.0862 31.4005 43.0862 31.4009C43.0862 31.4012 43.0862 31.4016 43.0862 31.402C43.0862 31.4024 43.0862 31.4028 43.0862 31.4032C43.0862 31.4036 43.0862 31.404 43.0862 31.4044C43.0862 31.4048 43.0862 31.4052 43.0862 31.4056C43.0862 31.4059 43.0862 31.4063 43.0862 31.4067C43.0862 31.4071 43.0862 31.4075 43.0862 31.4079C43.0862 31.4083 43.0862 31.4087 43.0862 31.4091C43.0862 31.4095 43.0862 31.4099 43.0862 31.4102C43.0862 31.4106 43.0862 31.411 43.0862 31.4114C43.0862 31.4118 43.0862 31.4122 43.0862 31.4126C43.0862 31.413 43.0862 31.4134 43.0862 31.4138C43.0862 31.4142 43.0862 31.4146 43.0862 31.4149C43.0862 31.4153 43.0862 31.4157 43.0862 31.4161C43.0862 31.4165 43.0862 31.4169 43.0862 31.4173C43.0862 31.4177 43.0862 31.4181 43.0862 31.4185C43.0862 31.4189 43.0862 31.4192 43.0862 31.4196C43.0862 31.42 43.0862 31.4204 43.0862 31.4208C43.0862 31.4212 43.0862 31.4216 43.0862 31.422C43.0862 31.4224 43.0862 31.4228 43.0862 31.4232C43.0862 31.4235 43.0862 31.4239 43.0862 31.4243C43.0862 31.4247 43.0862 31.4251 43.0862 31.4255C43.0862 31.4259 43.0862 31.4263 43.0862 31.4267C43.0862 31.4271 43.0862 31.4275 43.0862 31.4278C43.0862 31.4282 43.0862 31.4286 43.0862 31.429C43.0862 31.4294 43.0862 31.4298 43.0862 31.4302C43.0862 31.4306 43.0862 31.431 43.0862 31.4314C43.0862 31.4317 43.0862 31.4321 43.0862 31.4325C43.0862 31.4329 43.0862 31.4333 43.0862 31.4337C43.0862 31.4341 43.0862 31.4345 43.0862 31.4349C43.0862 31.4353 43.0862 31.4357 43.0862 31.436C43.0862 31.4364 43.0862 31.4368 43.0862 31.4372C43.0862 31.4376 43.0862 31.438 43.0862 31.4384C43.0862 31.4388 43.0862 31.4392 43.0862 31.4396C43.0862 31.4399 43.0862 31.4403 43.0862 31.4407C43.0862 31.4411 43.0862 31.4415 43.0862 31.4419C43.0862 31.4423 43.0862 31.4427 43.0862 31.4431C43.0862 31.4435 43.0862 31.4438 43.0862 31.4442C43.0862 31.4446 43.0862 31.445 43.0862 31.4454C43.0862 31.4458 43.0862 31.4462 43.0862 31.4466C43.0862 31.447 43.0862 31.4474 43.0862 31.4477C43.0862 31.4481 43.0862 31.4485 43.0862 31.4489C43.0862 31.4493 43.0862 31.4497 43.0862 31.4501C43.0862 31.4505 43.0862 31.4509 43.0862 31.4513C43.0862 31.4516 43.0862 31.452 43.0862 31.4524C43.0862 31.4528 43.0862 31.4532 43.0862 31.4536C43.0862 31.454 43.0862 31.4544 43.0862 31.4548C43.0862 31.4552 43.0862 31.4555 43.0862 31.4559C43.0862 31.4563 43.0862 31.4567 43.0862 31.4571C43.0862 31.4575 43.0862 31.4579 43.0862 31.4583C43.0862 31.4587 43.0862 31.4591 43.0862 31.4594C43.0862 31.4598 43.0862 31.4602 43.0862 31.4606C43.0862 31.461 43.0862 31.4614 43.0862 31.4618C43.0862 31.4622 43.0862 31.4626 43.0862 31.4629C43.0862 31.4633 43.0862 31.4637 43.0862 31.4641C43.0862 31.4645 43.0862 31.4649 43.0862 31.4653C43.0862 31.4657 43.0862 31.4661 43.0862 31.4665C43.0862 31.4668 43.0862 31.4672 43.0862 31.4676C43.0862 31.468 43.0862 31.4684 43.0862 31.4688C43.0862 31.4692 43.0862 31.4696 43.0862 31.47C43.0862 31.4703 43.0862 31.4707 43.0862 31.4711C43.0862 31.4715 43.0862 31.4719 43.0862 31.4723C43.0862 31.4727 43.0862 31.4731 43.0862 31.4735C43.0862 31.4739 43.0862 31.4742 43.0862 31.4746C43.0862 31.475 43.0862 31.4754 43.0862 31.4758C43.0862 31.4762 43.0862 31.4766 43.0862 31.477C43.0862 31.4774 43.0862 31.4777 43.0862 31.4781C43.0862 31.4785 43.0862 31.4789 43.0862 31.4793C43.0862 31.4797 43.0862 31.4801 43.0862 31.4805C43.0862 31.4809 43.0862 31.4812 43.0862 31.4816C43.0862 31.482 43.0862 31.4824 43.0862 31.4828C43.0862 31.4832 43.0862 31.4836 43.0862 31.484C43.0862 31.4844 43.0862 31.4847 43.0862 31.4851C43.0862 31.4855 43.0862 31.4859 43.0862 31.4863C43.0862 31.4867 43.0862 31.4871 43.0862 31.4875C43.0862 31.4879 43.0862 31.4882 43.0862 31.4886C43.0862 31.489 43.0862 31.4894 43.0862 31.4898C43.0862 31.4902 43.0862 31.4906 43.0862 31.491C43.0862 31.4914 43.0862 31.4917 43.0862 31.4921C43.0862 31.4925 43.0862 31.4929 43.0862 31.4933C43.0862 31.4937 43.0862 31.4941 43.0862 31.4945C43.0862 31.4948 43.0862 31.4952 43.0862 31.4956C43.0862 31.496 43.0862 31.4964 43.0862 31.4968C43.0862 31.4972 43.0862 31.4976 43.0862 31.498C43.0862 31.4983 43.0862 31.4987 43.0862 31.4991C43.0862 31.4995 43.0862 31.4999 43.0862 31.5003C43.0862 31.5007 43.0862 31.5011 43.0862 31.5015C43.0862 31.5018 43.0862 31.5022 43.0862 31.5026C43.0862 31.503 43.0862 31.5034 43.0862 31.5038C43.0862 31.5042 43.0862 31.5046 43.0862 31.5049C43.0862 31.5053 43.0862 31.5057 43.0862 31.5061C43.0862 31.5065 43.0862 31.5069 43.0862 31.5073C43.0862 31.5077 43.0862 31.5081 43.0862 31.5084C43.0862 31.5088 43.0862 31.5092 43.0862 31.5096C43.0862 31.51 43.0862 31.5104 43.0862 31.5108C43.0862 31.5112 43.0862 31.5115 43.0862 31.5119C43.0862 31.5123 43.0862 31.5127 43.0862 31.5131C43.0862 31.5135 43.0862 31.5139 43.0862 31.5143C43.0862 31.5146 43.0862 31.515 43.0862 31.5154C43.0862 31.5158 43.0862 31.5162 43.0862 31.5166C43.0862 31.517 43.0862 31.5174 43.0862 31.5177C43.0862 31.5181 43.0862 31.5185 43.0862 31.5189C43.0862 31.5193 43.0862 31.5197 43.0862 31.5201C43.0862 31.5205 43.0862 31.5209 43.0862 31.5212C43.0862 31.5216 43.0862 31.522 43.0862 31.5224C43.0862 31.5228 43.0862 31.5232 43.0862 31.5236C43.0862 31.524 43.0862 31.5243 43.0862 31.5247C43.0862 31.5251 43.0862 31.5255 43.0862 31.5259C43.0862 31.5263 43.0862 31.5267 43.0862 31.5271C43.0862 31.5274 43.0862 31.5278 43.0862 31.5282C43.0862 31.5286 43.0862 31.529 43.0862 31.5294C43.0862 31.5298 43.0862 31.5302 43.0862 31.5305C43.0862 31.5309 43.0862 31.5313 43.0862 31.5317C43.0862 31.5321 43.0862 31.5325 43.0862 31.5329C43.0862 31.5333 43.0862 31.5336 43.0862 31.534C43.0862 31.5344 43.0862 31.5348 43.0862 31.5352C43.0862 31.5356 43.0862 31.536 43.0862 31.5363C43.0862 31.5367 43.0862 31.5371 43.0862 31.5375C43.0862 31.5379 43.0862 31.5383 43.0862 31.5387C43.0862 31.5391 43.0862 31.5394 43.0862 31.5398C43.0862 31.5402 43.0862 31.5406 43.0862 31.541C43.0862 31.5414 43.0862 31.5418 43.0862 31.5422C43.0862 31.5425 43.0862 31.5429 43.0862 31.5433C43.0862 31.5437 43.0862 31.5441 43.0862 31.5445C43.0862 31.5449 43.0862 31.5452 43.0862 31.5456C43.0862 31.546 43.0862 31.5464 43.0862 31.5468C43.0862 31.5472 43.0862 31.5476 43.0862 31.548C43.0862 31.5483 43.0862 31.5487 43.0862 31.5491C43.0862 31.5495 43.0862 31.5499 43.0862 31.5503C43.0862 31.5507 43.0862 31.5511 43.0862 31.5514C43.0862 31.5518 43.0862 31.5522 43.0862 31.5526C43.0862 31.553 43.0862 31.5534 43.0862 31.5538C43.0862 31.5541 43.0862 31.5545 43.0862 31.5549C43.0862 31.5553 43.0862 31.5557 43.0862 31.5561C43.0862 31.5565 43.0862 31.5569 43.0862 31.5572C43.0862 31.5576 43.0862 31.558 43.0862 31.5584C43.0862 31.5588 43.0862 31.5592 43.0862 31.5596C43.0862 31.5599 43.0862 31.5603 43.0862 31.5607C43.0862 31.5611 43.0862 31.5615 43.0862 31.5619C43.0862 31.5623 43.0862 31.5626 43.0862 31.563C43.0862 31.5634 43.0862 31.5638 43.0862 31.5642C43.0862 31.5646 43.0862 31.565 43.0862 31.5654C43.0862 31.5657 43.0862 31.5661 43.0862 31.5665C43.0862 31.5669 43.0862 31.5673 43.0862 31.5677C43.0862 31.5681 43.0862 31.5684 43.0862 31.5688C43.0862 31.5692 43.0862 31.5696 43.0862 31.57C43.0862 31.5704 43.0862 31.5708 43.0862 31.5711C43.0862 31.5715 43.0862 31.5719 43.0862 31.5723C43.0862 31.5727 43.0862 31.5731 43.0862 31.5735C43.0862 31.5738 43.0862 31.5742 43.0862 31.5746C43.0862 31.575 43.0862 31.5754 43.0862 31.5758C43.0862 31.5762 43.0862 31.5765 43.0862 31.5769C43.0862 31.5773 43.0862 31.5777 43.0862 31.5781C43.0862 31.5785 43.0862 31.5789 43.0862 31.5792C43.0862 31.5796 43.0862 31.58 43.0862 31.5804C43.0862 31.5808 43.0862 31.5812 43.0862 31.5816C43.0862 31.5819 43.0862 31.5823 43.0862 31.5827C43.0862 31.5831 43.0862 31.5835 43.0862 31.5839C43.0862 31.5843 43.0862 31.5846 43.0862 31.585C43.0862 31.5854 43.0862 31.5858 43.0862 31.5862C43.0862 31.5866 43.0862 31.587 43.0862 31.5873C43.0862 31.5877 43.0862 31.5881 43.0862 31.5885C43.0862 31.5889 43.0862 31.5893 43.0862 31.5897C43.0862 31.59 43.0862 31.5904 43.0862 31.5908C43.0862 31.5912 43.0862 31.5916 43.0862 31.592C43.0862 31.5924 43.0862 31.5927 43.0862 31.5931C43.0862 31.5935 43.0862 31.5939 43.0862 31.5943C43.0862 31.5947 43.0862 31.5951 43.0862 31.5954C43.0862 31.5958 43.0862 31.5962 43.0862 31.5966C43.0862 31.597 43.0862 31.5974 43.0862 31.5978C43.0862 31.5981 43.0862 31.5985 43.0862 31.5989C43.0862 31.5993 43.0862 31.5997 43.0862 31.6001C43.0862 31.6004 43.0862 31.6008 43.0862 31.6012C43.0862 31.6016 43.0862 31.602 43.0862 31.6024C43.0862 31.6028 43.0862 31.6031 43.0862 31.6035C43.0862 31.6039 43.0862 31.6043 43.0862 31.6047C43.0862 31.6051 43.0862 31.6055 43.0862 31.6058C43.0862 31.6062 43.0862 31.6066 43.0862 31.607C43.0862 31.6074 43.0862 31.6078 43.0862 31.6081C43.0862 31.6085 43.0862 31.6089 43.0862 31.6093C43.0862 31.6097 43.0862 31.6101 43.0862 31.6105C43.0862 31.6108 43.0862 31.6112 43.0862 31.6116C43.0862 31.612 43.0862 31.6124 43.0862 31.6128C43.0862 31.6131 43.0862 31.6135 43.0862 31.6139C43.0862 31.6143 43.0862 31.6147 43.0862 31.6151C43.0862 31.6155 43.0862 31.6158 43.0862 31.6162C43.0862 31.6166 43.0862 31.617 43.0862 31.6174C43.0862 31.6178 43.0862 31.6181 43.0862 31.6185C43.0862 31.6189 43.0862 31.6193 43.0862 31.6197C43.0862 31.6201 43.0862 31.6205 43.0862 31.6208C43.0862 31.6212 43.0862 31.6216 43.0862 31.622C43.0862 31.6224 43.0862 31.6228 43.0862 31.6231C43.0862 31.6235 43.0862 31.6239 43.0862 31.6243C43.0862 31.6247 43.0862 31.6251 43.0862 31.6255C43.0862 31.6258 43.0862 31.6262 43.0862 31.6266C43.0862 31.627 43.0862 31.6274 43.0862 31.6278C43.0862 31.6281 43.0862 31.6285 43.0862 31.6289C43.0862 31.6293 43.0862 31.6297 43.0862 31.6301C43.0862 31.6304 43.0862 31.6308 43.0862 31.6312H43.5582C43.5582 31.6308 43.5582 31.6304 43.5582 31.6301C43.5582 31.6297 43.5582 31.6293 43.5582 31.6289C43.5582 31.6285 43.5582 31.6281 43.5582 31.6278C43.5582 31.6274 43.5582 31.627 43.5582 31.6266C43.5582 31.6262 43.5582 31.6258 43.5582 31.6255C43.5582 31.6251 43.5582 31.6247 43.5582 31.6243C43.5582 31.6239 43.5582 31.6235 43.5582 31.6231C43.5582 31.6228 43.5582 31.6224 43.5582 31.622C43.5582 31.6216 43.5582 31.6212 43.5582 31.6208C43.5582 31.6205 43.5582 31.6201 43.5582 31.6197C43.5582 31.6193 43.5582 31.6189 43.5582 31.6185C43.5582 31.6181 43.5582 31.6178 43.5582 31.6174C43.5582 31.617 43.5582 31.6166 43.5582 31.6162C43.5582 31.6158 43.5582 31.6155 43.5582 31.6151C43.5582 31.6147 43.5582 31.6143 43.5582 31.6139C43.5582 31.6135 43.5582 31.6131 43.5582 31.6128C43.5582 31.6124 43.5582 31.612 43.5582 31.6116C43.5582 31.6112 43.5582 31.6108 43.5582 31.6105C43.5582 31.6101 43.5582 31.6097 43.5582 31.6093C43.5582 31.6089 43.5582 31.6085 43.5582 31.6081C43.5582 31.6078 43.5582 31.6074 43.5582 31.607C43.5582 31.6066 43.5582 31.6062 43.5582 31.6058C43.5582 31.6055 43.5582 31.6051 43.5582 31.6047C43.5582 31.6043 43.5582 31.6039 43.5582 31.6035C43.5582 31.6031 43.5582 31.6028 43.5582 31.6024C43.5582 31.602 43.5582 31.6016 43.5582 31.6012C43.5582 31.6008 43.5582 31.6004 43.5582 31.6001C43.5582 31.5997 43.5582 31.5993 43.5582 31.5989C43.5582 31.5985 43.5582 31.5981 43.5582 31.5978C43.5582 31.5974 43.5582 31.597 43.5582 31.5966C43.5582 31.5962 43.5582 31.5958 43.5582 31.5954C43.5582 31.5951 43.5582 31.5947 43.5582 31.5943C43.5582 31.5939 43.5582 31.5935 43.5582 31.5931C43.5582 31.5927 43.5582 31.5924 43.5582 31.592C43.5582 31.5916 43.5582 31.5912 43.5582 31.5908C43.5582 31.5904 43.5582 31.59 43.5582 31.5897C43.5582 31.5893 43.5582 31.5889 43.5582 31.5885C43.5582 31.5881 43.5582 31.5877 43.5582 31.5873C43.5582 31.587 43.5582 31.5866 43.5582 31.5862C43.5582 31.5858 43.5582 31.5854 43.5582 31.585C43.5582 31.5846 43.5582 31.5843 43.5582 31.5839C43.5582 31.5835 43.5582 31.5831 43.5582 31.5827C43.5582 31.5823 43.5582 31.5819 43.5582 31.5816C43.5582 31.5812 43.5582 31.5808 43.5582 31.5804C43.5582 31.58 43.5582 31.5796 43.5582 31.5792C43.5582 31.5789 43.5582 31.5785 43.5582 31.5781C43.5582 31.5777 43.5582 31.5773 43.5582 31.5769C43.5582 31.5765 43.5582 31.5762 43.5582 31.5758C43.5582 31.5754 43.5582 31.575 43.5582 31.5746C43.5582 31.5742 43.5582 31.5738 43.5582 31.5735C43.5582 31.5731 43.5582 31.5727 43.5582 31.5723C43.5582 31.5719 43.5582 31.5715 43.5582 31.5711C43.5582 31.5708 43.5582 31.5704 43.5582 31.57C43.5582 31.5696 43.5582 31.5692 43.5582 31.5688C43.5582 31.5684 43.5582 31.5681 43.5582 31.5677C43.5582 31.5673 43.5582 31.5669 43.5582 31.5665C43.5582 31.5661 43.5582 31.5657 43.5582 31.5654C43.5582 31.565 43.5582 31.5646 43.5582 31.5642C43.5582 31.5638 43.5582 31.5634 43.5582 31.563C43.5582 31.5626 43.5582 31.5623 43.5582 31.5619C43.5582 31.5615 43.5582 31.5611 43.5582 31.5607C43.5582 31.5603 43.5582 31.5599 43.5582 31.5596C43.5582 31.5592 43.5582 31.5588 43.5582 31.5584C43.5582 31.558 43.5582 31.5576 43.5582 31.5572C43.5582 31.5569 43.5582 31.5565 43.5582 31.5561C43.5582 31.5557 43.5582 31.5553 43.5582 31.5549C43.5582 31.5545 43.5582 31.5541 43.5582 31.5538C43.5582 31.5534 43.5582 31.553 43.5582 31.5526C43.5582 31.5522 43.5582 31.5518 43.5582 31.5514C43.5582 31.5511 43.5582 31.5507 43.5582 31.5503C43.5582 31.5499 43.5582 31.5495 43.5582 31.5491C43.5582 31.5487 43.5582 31.5483 43.5582 31.548C43.5582 31.5476 43.5582 31.5472 43.5582 31.5468C43.5582 31.5464 43.5582 31.546 43.5582 31.5456C43.5582 31.5452 43.5582 31.5449 43.5582 31.5445C43.5582 31.5441 43.5582 31.5437 43.5582 31.5433C43.5582 31.5429 43.5582 31.5425 43.5582 31.5422C43.5582 31.5418 43.5582 31.5414 43.5582 31.541C43.5582 31.5406 43.5582 31.5402 43.5582 31.5398C43.5582 31.5394 43.5582 31.5391 43.5582 31.5387C43.5582 31.5383 43.5582 31.5379 43.5582 31.5375C43.5582 31.5371 43.5582 31.5367 43.5582 31.5363C43.5582 31.536 43.5582 31.5356 43.5582 31.5352C43.5582 31.5348 43.5582 31.5344 43.5582 31.534C43.5582 31.5336 43.5582 31.5333 43.5582 31.5329C43.5582 31.5325 43.5582 31.5321 43.5582 31.5317C43.5582 31.5313 43.5582 31.5309 43.5582 31.5305C43.5582 31.5302 43.5582 31.5298 43.5582 31.5294C43.5582 31.529 43.5582 31.5286 43.5582 31.5282C43.5582 31.5278 43.5582 31.5274 43.5582 31.5271C43.5582 31.5267 43.5582 31.5263 43.5582 31.5259C43.5582 31.5255 43.5582 31.5251 43.5582 31.5247C43.5582 31.5243 43.5582 31.524 43.5582 31.5236C43.5582 31.5232 43.5582 31.5228 43.5582 31.5224C43.5582 31.522 43.5582 31.5216 43.5582 31.5212C43.5582 31.5209 43.5582 31.5205 43.5582 31.5201C43.5582 31.5197 43.5582 31.5193 43.5582 31.5189C43.5582 31.5185 43.5582 31.5181 43.5582 31.5177C43.5582 31.5174 43.5582 31.517 43.5582 31.5166C43.5582 31.5162 43.5582 31.5158 43.5582 31.5154C43.5582 31.515 43.5582 31.5146 43.5582 31.5143C43.5582 31.5139 43.5582 31.5135 43.5582 31.5131C43.5582 31.5127 43.5582 31.5123 43.5582 31.5119C43.5582 31.5115 43.5582 31.5112 43.5582 31.5108C43.5582 31.5104 43.5582 31.51 43.5582 31.5096C43.5582 31.5092 43.5582 31.5088 43.5582 31.5084C43.5582 31.5081 43.5582 31.5077 43.5582 31.5073C43.5582 31.5069 43.5582 31.5065 43.5582 31.5061C43.5582 31.5057 43.5582 31.5053 43.5582 31.5049C43.5582 31.5046 43.5582 31.5042 43.5582 31.5038C43.5582 31.5034 43.5582 31.503 43.5582 31.5026C43.5582 31.5022 43.5582 31.5018 43.5582 31.5015C43.5582 31.5011 43.5582 31.5007 43.5582 31.5003C43.5582 31.4999 43.5582 31.4995 43.5582 31.4991C43.5582 31.4987 43.5582 31.4983 43.5582 31.498C43.5582 31.4976 43.5582 31.4972 43.5582 31.4968C43.5582 31.4964 43.5582 31.496 43.5582 31.4956C43.5582 31.4952 43.5582 31.4948 43.5582 31.4945C43.5582 31.4941 43.5582 31.4937 43.5582 31.4933C43.5582 31.4929 43.5582 31.4925 43.5582 31.4921C43.5582 31.4917 43.5582 31.4914 43.5582 31.491C43.5582 31.4906 43.5582 31.4902 43.5582 31.4898C43.5582 31.4894 43.5582 31.489 43.5582 31.4886C43.5582 31.4882 43.5582 31.4879 43.5582 31.4875C43.5582 31.4871 43.5582 31.4867 43.5582 31.4863C43.5582 31.4859 43.5582 31.4855 43.5582 31.4851C43.5582 31.4847 43.5582 31.4844 43.5582 31.484C43.5582 31.4836 43.5582 31.4832 43.5582 31.4828C43.5582 31.4824 43.5582 31.482 43.5582 31.4816C43.5582 31.4812 43.5582 31.4809 43.5582 31.4805C43.5582 31.4801 43.5582 31.4797 43.5582 31.4793C43.5582 31.4789 43.5582 31.4785 43.5582 31.4781C43.5582 31.4777 43.5582 31.4774 43.5582 31.477C43.5582 31.4766 43.5582 31.4762 43.5582 31.4758C43.5582 31.4754 43.5582 31.475 43.5582 31.4746C43.5582 31.4742 43.5582 31.4739 43.5582 31.4735C43.5582 31.4731 43.5582 31.4727 43.5582 31.4723C43.5582 31.4719 43.5582 31.4715 43.5582 31.4711C43.5582 31.4707 43.5582 31.4703 43.5582 31.47C43.5582 31.4696 43.5582 31.4692 43.5582 31.4688C43.5582 31.4684 43.5582 31.468 43.5582 31.4676C43.5582 31.4672 43.5582 31.4668 43.5582 31.4665C43.5582 31.4661 43.5582 31.4657 43.5582 31.4653C43.5582 31.4649 43.5582 31.4645 43.5582 31.4641C43.5582 31.4637 43.5582 31.4633 43.5582 31.4629C43.5582 31.4626 43.5582 31.4622 43.5582 31.4618C43.5582 31.4614 43.5582 31.461 43.5582 31.4606C43.5582 31.4602 43.5582 31.4598 43.5582 31.4594C43.5582 31.4591 43.5582 31.4587 43.5582 31.4583C43.5582 31.4579 43.5582 31.4575 43.5582 31.4571C43.5582 31.4567 43.5582 31.4563 43.5582 31.4559C43.5582 31.4555 43.5582 31.4552 43.5582 31.4548C43.5582 31.4544 43.5582 31.454 43.5582 31.4536C43.5582 31.4532 43.5582 31.4528 43.5582 31.4524C43.5582 31.452 43.5582 31.4516 43.5582 31.4513C43.5582 31.4509 43.5582 31.4505 43.5582 31.4501C43.5582 31.4497 43.5582 31.4493 43.5582 31.4489C43.5582 31.4485 43.5582 31.4481 43.5582 31.4477C43.5582 31.4474 43.5582 31.447 43.5582 31.4466C43.5582 31.4462 43.5582 31.4458 43.5582 31.4454C43.5582 31.445 43.5582 31.4446 43.5582 31.4442C43.5582 31.4438 43.5582 31.4435 43.5582 31.4431C43.5582 31.4427 43.5582 31.4423 43.5582 31.4419C43.5582 31.4415 43.5582 31.4411 43.5582 31.4407C43.5582 31.4403 43.5582 31.4399 43.5582 31.4396C43.5582 31.4392 43.5582 31.4388 43.5582 31.4384C43.5582 31.438 43.5582 31.4376 43.5582 31.4372C43.5582 31.4368 43.5582 31.4364 43.5582 31.436C43.5582 31.4357 43.5582 31.4353 43.5582 31.4349C43.5582 31.4345 43.5582 31.4341 43.5582 31.4337C43.5582 31.4333 43.5582 31.4329 43.5582 31.4325C43.5582 31.4321 43.5582 31.4317 43.5582 31.4314C43.5582 31.431 43.5582 31.4306 43.5582 31.4302C43.5582 31.4298 43.5582 31.4294 43.5582 31.429C43.5582 31.4286 43.5582 31.4282 43.5582 31.4278C43.5582 31.4275 43.5582 31.4271 43.5582 31.4267C43.5582 31.4263 43.5582 31.4259 43.5582 31.4255C43.5582 31.4251 43.5582 31.4247 43.5582 31.4243C43.5582 31.4239 43.5582 31.4235 43.5582 31.4232C43.5582 31.4228 43.5582 31.4224 43.5582 31.422C43.5582 31.4216 43.5582 31.4212 43.5582 31.4208C43.5582 31.4204 43.5582 31.42 43.5582 31.4196C43.5582 31.4192 43.5582 31.4189 43.5582 31.4185C43.5582 31.4181 43.5582 31.4177 43.5582 31.4173C43.5582 31.4169 43.5582 31.4165 43.5582 31.4161C43.5582 31.4157 43.5582 31.4153 43.5582 31.4149C43.5582 31.4146 43.5582 31.4142 43.5582 31.4138C43.5582 31.4134 43.5582 31.413 43.5582 31.4126C43.5582 31.4122 43.5582 31.4118 43.5582 31.4114C43.5582 31.411 43.5582 31.4106 43.5582 31.4102C43.5582 31.4099 43.5582 31.4095 43.5582 31.4091C43.5582 31.4087 43.5582 31.4083 43.5582 31.4079C43.5582 31.4075 43.5582 31.4071 43.5582 31.4067C43.5582 31.4063 43.5582 31.4059 43.5582 31.4056C43.5582 31.4052 43.5582 31.4048 43.5582 31.4044C43.5582 31.404 43.5582 31.4036 43.5582 31.4032C43.5582 31.4028 43.5582 31.4024 43.5582 31.402C43.5582 31.4016 43.5582 31.4012 43.5582 31.4009C43.5582 31.4005 43.5582 31.4001 43.5582 31.3997C43.5582 31.3993 43.5582 31.3989 43.5582 31.3985C43.5582 31.3981 43.5582 31.3977 43.5582 31.3973C43.5582 31.3969 43.5582 31.3965 43.5582 31.3962C43.5582 31.3958 43.5582 31.3954 43.5582 31.395C43.5582 31.3946 43.5582 31.3942 43.5582 31.3938C43.5582 31.3934 43.5582 31.393 43.5582 31.3926C43.5582 31.3922 43.5582 31.3918 43.5582 31.3915C43.5582 31.3911 43.5582 31.3907 43.5582 31.3903C43.5582 31.3899 43.5582 31.3895 43.5582 31.3891C43.5582 31.3887 43.5582 31.3883 43.5582 31.3879C43.5582 31.3875 43.5582 31.3871 43.5582 31.3868C43.5582 31.3864 43.5582 31.386 43.5582 31.3856C43.5582 31.3852 43.5582 31.3848 43.5582 31.3844C43.5582 31.384 43.5582 31.3836 43.5582 31.3832C43.5582 31.3828 43.5582 31.3824 43.5582 31.382C43.5582 31.3817 43.5582 31.3813 43.5582 31.3809C43.5582 31.3805 43.5582 31.3801 43.5582 31.3797C43.5582 31.3793 43.5582 31.3789 43.5582 31.3785C43.5582 31.3781 43.5582 31.3777 43.5582 31.3773C43.5582 31.3769 43.5582 31.3766 43.5582 31.3762C43.5582 31.3758 43.5582 31.3754 43.5582 31.375C43.5582 31.3746 43.5582 31.3742 43.5582 31.3738C43.5582 31.3734 43.5582 31.373 43.5582 31.3726C43.5582 31.3722 43.5582 31.3718 43.5582 31.3715C43.5582 31.3711 43.5582 31.3707 43.5582 31.3703C43.5582 31.3699 43.5582 31.3695 43.5582 31.3691C43.5582 31.3687 43.5582 31.3683 43.5582 31.3679C43.5582 31.3675 43.5582 31.3671 43.5582 31.3667C43.5582 31.3664 43.5582 31.366 43.5582 31.3656C43.5582 31.3652 43.5582 31.3648 43.5582 31.3644C43.5582 31.364 43.5582 31.3636 43.5582 31.3632C43.5582 31.3628 43.5582 31.3624 43.5582 31.362C43.5582 31.3616 43.5582 31.3612 43.5582 31.3609C43.5582 31.3605 43.5582 31.3601 43.5582 31.3597C43.5582 31.3593 43.5582 31.3589 43.5582 31.3585C43.5582 31.3581 43.5582 31.3577 43.5582 31.3573C43.5582 31.3569 43.5582 31.3565 43.5582 31.3561C43.5582 31.3557 43.5582 31.3554 43.5582 31.355C43.5582 31.3546 43.5582 31.3542 43.5582 31.3538C43.5582 31.3534 43.5582 31.353 43.5582 31.3526C43.5582 31.3522 43.5582 31.3518 43.5582 31.3514C43.5582 31.351 43.5582 31.3506 43.5582 31.3502C43.5582 31.3499 43.5582 31.3495 43.5582 31.3491C43.5582 31.3487 43.5582 31.3483 43.5582 31.3479C43.5582 31.3475 43.5582 31.3471 43.5582 31.3467C43.5582 31.3463 43.5582 31.3459 43.5582 31.3455C43.5582 31.3451 43.5582 31.3447 43.5582 31.3443C43.5582 31.344 43.5582 31.3436 43.5582 31.3432C43.5582 31.3428 43.5582 31.3424 43.5582 31.342C43.5582 31.3416 43.5582 31.3412 43.5582 31.3408C43.5582 31.3404 43.5582 31.34 43.5582 31.3396C43.5582 31.3392 43.5582 31.3388 43.5582 31.3384C43.5582 31.3381 43.5582 31.3377 43.5582 31.3373C43.5582 31.3369 43.5582 31.3365 43.5582 31.3361C43.5582 31.3357 43.5582 31.3353 43.5582 31.3349C43.5582 31.3345 43.5582 31.3341 43.5582 31.3337C43.5582 31.3333 43.5582 31.3329 43.5582 31.3325C43.5582 31.3321 43.5582 31.3318 43.5582 31.3314C43.5582 31.331 43.5582 31.3306 43.5582 31.3302C43.5582 31.3298 43.5582 31.3294 43.5582 31.329C43.5582 31.3286 43.5582 31.3282 43.5582 31.3278C43.5582 31.3274 43.5582 31.327 43.5582 31.3266C43.5582 31.3262 43.5582 31.3258 43.5582 31.3255C43.5582 31.3251 43.5582 31.3247 43.5582 31.3243C43.5582 31.3239 43.5582 31.3235 43.5582 31.3231C43.5582 31.3227 43.5582 31.3223 43.5582 31.3219C43.5582 31.3215 43.5582 31.3211 43.5582 31.3207C43.5582 31.3203 43.5582 31.3199 43.5582 31.3195C43.5582 31.3191 43.5582 31.3188 43.5582 31.3184C43.5582 31.318 43.5582 31.3176 43.5582 31.3172C43.5582 31.3168 43.5582 31.3164 43.5582 31.316C43.5582 31.3156 43.5582 31.3152 43.5582 31.3148C43.5582 31.3144 43.5582 31.314 43.5582 31.3136C43.5582 31.3132 43.5582 31.3128 43.5582 31.3124C43.5582 31.3121 43.5582 31.3117 43.5582 31.3113C43.5582 31.3109 43.5582 31.3105 43.5582 31.3101C43.5582 31.3097 43.5582 31.3093 43.5582 31.3089C43.5582 31.3085 43.5582 31.3081 43.5582 31.3077C43.5582 31.3073 43.5582 31.3069 43.5582 31.3065C43.5582 31.3061 43.5582 31.3057 43.5582 31.3053C43.5582 31.305 43.5582 31.3046 43.5582 31.3042C43.5582 31.3038 43.5582 31.3034 43.5582 31.303C43.5582 31.3026 43.5582 31.3022 43.5582 31.3018C43.5582 31.3014 43.5582 31.301 43.5582 31.3006C43.5582 31.3002 43.5582 31.2998 43.5582 31.2994C43.5582 31.299 43.5582 31.2986 43.5582 31.2982C43.5582 31.2978 43.5582 31.2975 43.5582 31.2971C43.5582 31.2967 43.5582 31.2963 43.5582 31.2959C43.5582 31.2955 43.5582 31.2951 43.5582 31.2947C43.5582 31.2943 43.5582 31.2939 43.5582 31.2935C43.5582 31.2931 43.5582 31.2927 43.5582 31.2923C43.5582 31.2919 43.5582 31.2915 43.5582 31.2911C43.5582 31.2907 43.5582 31.2903 43.5582 31.2899C43.5582 31.2896 43.5582 31.2892 43.5582 31.2888C43.5582 31.2884 43.5582 31.288 43.5582 31.2876C43.5582 31.2872 43.5582 31.2868 43.5582 31.2864C43.5582 31.286 43.5582 31.2856 43.5582 31.2852C43.5582 31.2848 43.5582 31.2844 43.5582 31.284C43.5582 31.2836 43.5582 31.2832 43.5582 31.2828C43.5582 31.2824 43.5582 31.282 43.5582 31.2817C43.5582 31.2813 43.5582 31.2809 43.5582 31.2805C43.5582 31.2801 43.5582 31.2797 43.5582 31.2793C43.5582 31.2789 43.5582 31.2785 43.5582 31.2781C43.5582 31.2777 43.5582 31.2773 43.5582 31.2769C43.5582 31.2765 43.5582 31.2761 43.5582 31.2757C43.5582 31.2753 43.5582 31.2749 43.5582 31.2745C43.5582 31.2741 43.5582 31.2737 43.5582 31.2733C43.5582 31.273 43.5582 31.2726 43.5582 31.2722C43.5582 31.2718 43.5582 31.2714 43.5582 31.271C43.5582 31.2706 43.5582 31.2702 43.5582 31.2698C43.5582 31.2694 43.5582 31.269 43.5582 31.2686C43.5582 31.2682 43.5582 31.2678 43.5582 31.2674C43.5582 31.267 43.5582 31.2666 43.5582 31.2662C43.5582 31.2658 43.5582 31.2654 43.5582 31.265C43.5582 31.2646 43.5582 31.2642 43.5582 31.2638C43.5582 31.2635 43.5582 31.2631 43.5582 31.2627C43.5582 31.2623 43.5582 31.2619 43.5582 31.2615C43.5582 31.2611 43.5582 31.2607 43.5582 31.2603C43.5582 31.2599 43.5582 31.2595 43.5582 31.2591C43.5582 31.2587 43.5582 31.2583 43.5582 31.2579C43.5582 31.2575 43.5582 31.2571 43.5582 31.2567C43.5582 31.2563 43.5582 31.2559 43.5582 31.2555C43.5582 31.2551 43.5582 31.2547 43.5582 31.2543C43.5582 31.2539 43.5582 31.2536 43.5582 31.2532C43.5582 31.2528 43.5582 31.2524 43.5582 31.252C43.5582 31.2516 43.5582 31.2512 43.5582 31.2508C43.5582 31.2504 43.5582 31.25 43.5582 31.2496C43.5582 31.2492 43.5582 31.2488 43.5582 31.2484C43.5582 31.248 43.5582 31.2476 43.5582 31.2472C43.5582 31.2468 43.5582 31.2464 43.5582 31.246C43.5582 31.2456 43.5582 31.2452 43.5582 31.2448C43.5582 31.2444 43.5582 31.244 43.5582 31.2436C43.5582 31.2432 43.5582 31.2428 43.5582 31.2425C43.5582 31.2421 43.5582 31.2417 43.5582 31.2413C43.5582 31.2409 43.5582 31.2405 43.5582 31.2401C43.5582 31.2397 43.5582 31.2393 43.5582 31.2389C43.5582 31.2385 43.5582 31.2381 43.5582 31.2377C43.5582 31.2373 43.5582 31.2369 43.5582 31.2365C43.5582 31.2361 43.5582 31.2357 43.5582 31.2353C43.5582 31.2349 43.5582 31.2345 43.5582 31.2341C43.5582 31.2337 43.5582 31.2333 43.5582 31.2329C43.5582 31.2325 43.5582 31.2321 43.5582 31.2317C43.5582 31.2313 43.5582 31.2309 43.5582 31.2306C43.5582 31.2302 43.5582 31.2298 43.5582 31.2294C43.5582 31.229 43.5582 31.2286 43.5582 31.2282C43.5582 31.2278 43.5582 31.2274 43.5582 31.227C43.5582 31.2266 43.5582 31.2262 43.5582 31.2258C43.5582 31.2254 43.5582 31.225 43.5582 31.2246C43.5582 31.2242 43.5582 31.2238 43.5582 31.2234C43.5582 31.223 43.5582 31.2226 43.5582 31.2222C43.5582 31.2218 43.5582 31.2214 43.5582 31.221C43.5582 31.2206 43.5582 31.2202 43.5582 31.2198C43.5582 31.2194 43.5582 31.219 43.5582 31.2186C43.5582 31.2182 43.5582 31.2178 43.5582 31.2174C43.5582 31.217 43.5582 31.2167 43.5582 31.2163C43.5582 31.2159 43.5582 31.2155 43.5582 31.2151C43.5582 31.2147 43.5582 31.2143 43.5582 31.2139C43.5582 31.2135 43.5582 31.2131 43.5582 31.2127C43.5582 31.2123 43.5582 31.2119 43.5582 31.2115C43.5582 31.2111 43.5582 31.2107 43.5582 31.2103C43.5582 31.2099 43.5582 31.2095 43.5582 31.2091C43.5582 31.2087 43.5582 31.2083 43.5582 31.2079C43.5582 31.2075 43.5582 31.2071 43.5582 31.2067C43.5582 31.2063 43.5582 31.2059 43.5582 31.2055C43.5582 31.2051 43.5582 31.2047 43.5582 31.2043C43.5582 31.2039 43.5582 31.2035 43.5582 31.2031C43.5582 31.2027 43.5582 31.2023 43.5582 31.2019C43.5582 31.2015 43.5582 31.2011 43.5582 31.2007C43.5582 31.2003 43.5582 31.2 43.5582 31.1996C43.5582 31.1992 43.5582 31.1988 43.5582 31.1984C43.5582 31.198 43.5582 31.1976 43.5582 31.1972C43.5582 31.1968 43.5582 31.1964 43.5582 31.196C43.5582 31.1956 43.5582 31.1952 43.5582 31.1948C43.5582 31.1944 43.5582 31.194 43.5582 31.1936C43.5582 31.1932 43.5582 31.1928 43.5582 31.1924C43.5582 31.192 43.5582 31.1916 43.5582 31.1912C43.5582 31.1908 43.5582 31.1904 43.5582 31.19C43.5582 31.1896 43.5582 31.1892 43.5582 31.1888C43.5582 31.1884 43.5582 31.188 43.5582 31.1876C43.5582 31.1872 43.5582 31.1868 43.5582 31.1864C43.5582 31.186 43.5582 31.1856 43.5582 31.1852C43.5582 31.1848 43.5582 31.1844 43.5582 31.184C43.5582 31.1836 43.5582 31.1832 43.5582 31.1828C43.5582 31.1824 43.5582 31.182 43.5582 31.1816C43.5582 31.1812 43.5582 31.1808 43.5582 31.1804C43.5582 31.18 43.5582 31.1796 43.5582 31.1792C43.5582 31.1788 43.5582 31.1784 43.5582 31.178C43.5582 31.1776 43.5582 31.1773 43.5582 31.1769C43.5582 31.1765 43.5582 31.1761 43.5582 31.1757C43.5582 31.1753 43.5582 31.1749 43.5582 31.1745C43.5582 31.1741 43.5582 31.1737 43.5582 31.1733C43.5582 31.1729 43.5582 31.1725 43.5582 31.1721C43.5582 31.1717 43.5582 31.1713 43.5582 31.1709C43.5582 31.1705 43.5582 31.1701 43.5582 31.1697C43.5582 31.1693 43.5582 31.1689 43.5582 31.1685C43.5582 31.1681 43.5582 31.1677 43.5582 31.1673C43.5582 31.1669 43.5582 31.1665 43.5582 31.1661C43.5582 31.1657 43.5582 31.1653 43.5582 31.1649C43.5582 31.1645 43.5582 31.1641 43.5582 31.1637C43.5582 31.1633 43.5582 31.1629 43.5582 31.1625C43.5582 31.1621 43.5582 31.1617 43.5582 31.1613C43.5582 31.1609 43.5582 31.1605 43.5582 31.1601C43.5582 31.1597 43.5582 31.1593 43.5582 31.1589C43.5582 31.1585 43.5582 31.1581 43.5582 31.1577C43.5582 31.1573 43.5582 31.1569 43.5582 31.1565C43.5582 31.1561 43.5582 31.1557 43.5582 31.1553C43.5582 31.1549 43.5582 31.1545 43.5582 31.1541C43.5582 31.1537 43.5582 31.1533 43.5582 31.1529C43.5582 31.1525 43.5582 31.1521 43.5582 31.1517C43.5582 31.1513 43.5582 31.1509 43.5582 31.1505C43.5582 31.1501 43.5582 31.1497 43.5582 31.1493C43.5582 31.1489 43.5582 31.1485 43.5582 31.1481C43.5582 31.1477 43.5582 31.1473 43.5582 31.1469C43.5582 31.1465 43.5582 31.1461 43.5582 31.1457C43.5582 31.1453 43.5582 31.1449 43.5582 31.1445C43.5582 31.1441 43.5582 31.1437 43.5582 31.1433C43.5582 31.1429 43.5582 31.1425 43.5582 31.1421C43.5582 31.1417 43.5582 31.1413 43.5582 31.1409C43.5582 31.1405 43.5582 31.1401 43.5582 31.1397C43.5582 31.1393 43.5582 31.1389 43.5582 31.1385C43.5582 31.1381 43.5582 31.1377 43.5582 31.1373C43.5582 31.1369 43.5582 31.1365 43.5582 31.1361C43.5582 31.1357 43.5582 31.1353 43.5582 31.1349C43.5582 31.1345 43.5582 31.1341 43.5582 31.1337C43.5582 31.1333 43.5582 31.1329 43.5582 31.1325C43.5582 31.1321 43.5582 31.1317 43.5582 31.1313C43.5582 31.1309 43.5582 31.1305 43.5582 31.1301C43.5582 31.1297 43.5582 31.1293 43.5582 31.1289C43.5582 31.1285 43.5582 31.1281 43.5582 31.1277C43.5582 31.1273 43.5582 31.1269 43.5582 31.1265C43.5582 31.1261 43.5582 31.1257 43.5582 31.1253C43.5582 31.1249 43.5582 31.1245 43.5582 31.1241C43.5582 31.1237 43.5582 31.1233 43.5582 31.1229C43.5582 31.1225 43.5582 31.1221 43.5582 31.1217C43.5582 31.1213 43.5582 31.1209 43.5582 31.1205C43.5582 31.1201 43.5582 31.1197 43.5582 31.1193C43.5582 31.1189 43.5582 31.1185 43.5582 31.1181C43.5582 31.1177 43.5582 31.1173 43.5582 31.1169C43.5582 31.1165 43.5582 31.1161 43.5582 31.1157C43.5582 31.1153 43.5582 31.1149 43.5582 31.1145C43.5582 31.1141 43.5582 31.1137 43.5582 31.1133C43.5582 31.1129 43.5582 31.1125 43.5582 31.1121C43.5582 31.1117 43.5582 31.1113 43.5582 31.1109C43.5582 31.1105 43.5582 31.1101 43.5582 31.1097C43.5582 31.1093 43.5582 31.1089 43.5582 31.1085C43.5582 31.1081 43.5582 31.1077 43.5582 31.1073C43.5582 31.1069 43.5582 31.1065 43.5582 31.1061C43.5582 31.1057 43.5582 31.1053 43.5582 31.1049C43.5582 31.1045 43.5582 31.1041 43.5582 31.1037C43.5582 31.1033 43.5582 31.1029 43.5582 31.1025C43.5582 31.1021 43.5582 31.1017 43.5582 31.1013C43.5582 31.1009 43.5582 31.1005 43.5582 31.1001C43.5582 31.0997 43.5582 31.0993 43.5582 31.0989C43.5582 31.0985 43.5582 31.0981 43.5582 31.0977C43.5582 31.0973 43.5582 31.0969 43.5582 31.0965C43.5582 31.0961 43.5582 31.0957 43.5582 31.0953C43.5582 31.0949 43.5582 31.0945 43.5582 31.0941C43.5582 31.0937 43.5582 31.0933 43.5582 31.0929C43.5582 31.0925 43.5582 31.0921 43.5582 31.0917C43.5582 31.0913 43.5582 31.0909 43.5582 31.0905C43.5582 31.0901 43.5582 31.0897 43.5582 31.0893C43.5582 31.0889 43.5582 31.0885 43.5582 31.0881C43.5582 31.0877 43.5582 31.0872 43.5582 31.0868C43.5582 31.0864 43.5582 31.086 43.5582 31.0856C43.5582 31.0852 43.5582 31.0848 43.5582 31.0844C43.5582 31.084 43.5582 31.0836 43.5582 31.0832C43.5582 31.0828 43.5582 31.0824 43.5582 31.082C43.5582 31.0816 43.5582 31.0812 43.5582 31.0808C43.5582 31.0804 43.5582 31.08 43.5582 31.0796C43.5582 31.0792 43.5582 31.0788 43.5582 31.0784C43.5582 31.078 43.5582 31.0776 43.5582 31.0772C43.5582 31.0768 43.5582 31.0764 43.5582 31.076C43.5582 31.0756 43.5582 31.0752 43.5582 31.0748C43.5582 31.0744 43.5582 31.074 43.5582 31.0736C43.5582 31.0732 43.5582 31.0728 43.5582 31.0724C43.5582 31.072 43.5582 31.0716 43.5582 31.0712C43.5582 31.0708 43.5582 31.0704 43.5582 31.07C43.5582 31.0696 43.5582 31.0692 43.5582 31.0688C43.5582 31.0684 43.5582 31.068 43.5582 31.0676C43.5582 31.0672 43.5582 31.0668 43.5582 31.0664C43.5582 31.066 43.5582 31.0656 43.5582 31.0652C43.5582 31.0648 43.5582 31.0643 43.5582 31.0639C43.5582 31.0635 43.5582 31.0631 43.5582 31.0627C43.5582 31.0623 43.5582 31.0619 43.5582 31.0615C43.5582 31.0611 43.5582 31.0607 43.5582 31.0603C43.5582 31.0599 43.5582 31.0595 43.5582 31.0591C43.5582 31.0587 43.5582 31.0583 43.5582 31.0579C43.5582 31.0575 43.5582 31.0571 43.5582 31.0567C43.5582 31.0563 43.5582 31.0559 43.5582 31.0555C43.5582 31.0551 43.5582 31.0547 43.5582 31.0543C43.5582 31.0539 43.5582 31.0535 43.5582 31.0531C43.5582 31.0527 43.5582 31.0523 43.5582 31.0519C43.5582 31.0515 43.5582 31.0511 43.5582 31.0507C43.5582 31.0503 43.5582 31.0499 43.5582 31.0495C43.5582 31.0491 43.5582 31.0487 43.5582 31.0483C43.5582 31.0479 43.5582 31.0474 43.5582 31.047C43.5582 31.0466 43.5582 31.0462 43.5582 31.0458C43.5582 31.0454 43.5582 31.045 43.5582 31.0446C43.5582 31.0442 43.5582 31.0438 43.5582 31.0434C43.5582 31.043 43.5582 31.0426 43.5582 31.0422C43.5582 31.0418 43.5582 31.0414 43.5582 31.041C43.5582 31.0406 43.5582 31.0402 43.5582 31.0398C43.5582 31.0394 43.5582 31.039 43.5582 31.0386C43.5582 31.0382 43.5582 31.0378 43.5582 31.0374C43.5582 31.037 43.5582 31.0366 43.5582 31.0362C43.5582 31.0358 43.5582 31.0354 43.5582 31.035C43.5582 31.0346 43.5582 31.0342 43.5582 31.0338C43.5582 31.0333 43.5582 31.0329 43.5582 31.0325C43.5582 31.0321 43.5582 31.0317 43.5582 31.0313C43.5582 31.0309 43.5582 31.0305 43.5582 31.0301C43.5582 31.0297 43.5582 31.0293 43.5582 31.0289C43.5582 31.0285 43.5582 31.0281 43.5582 31.0277C43.5582 31.0273 43.5582 31.0269 43.5582 31.0265H43.0862ZM43.0865 31.643C43.0965 31.8436 43.1116 32.0441 43.1316 32.2447L43.6012 32.1977C43.582 32.0049 43.5675 31.8122 43.5579 31.6194L43.0865 31.643ZM43.3418 32.4559L44.8905 32.6181L44.9397 32.1487L43.391 31.9865L43.3418 32.4559ZM44.6791 32.3834V34.2418H45.1511V32.3834H44.6791ZM44.9151 34.0058H40.7411V34.4778H44.9151V34.0058ZM40.9723 34.1945C40.8845 33.7653 40.8165 33.3817 40.7682 33.0433L40.3009 33.11C40.3509 33.4599 40.4206 33.853 40.5098 34.2891L40.9723 34.1945ZM40.7682 33.0433C40.7199 32.7057 40.6862 32.3682 40.6669 32.0307L40.1957 32.0577C40.2158 32.4085 40.2508 32.7593 40.3009 33.11L40.7682 33.0433ZM40.2453 31.899C39.7051 32.5909 39.0261 33.1709 38.2053 33.6386L38.439 34.0486C39.3095 33.5527 40.0366 32.9331 40.6173 32.1894L40.2453 31.899ZM38.2061 33.6381C37.4055 34.0902 36.5507 34.3156 35.6378 34.3156V34.7876C36.6325 34.7876 37.5672 34.5409 38.4382 34.0491L38.2061 33.6381ZM36.0655 32.3539C37.0687 32.3539 37.9899 32.1128 38.8241 31.6288L38.5872 31.2206C37.8284 31.6609 36.9896 31.882 36.0655 31.882V32.3539ZM38.8241 31.6288C39.6491 31.1501 40.2556 30.5654 40.6251 29.8686L40.2081 29.6475C39.8893 30.2487 39.3551 30.775 38.5872 31.2206L38.8241 31.6288ZM40.6526 29.7581V26.8672H40.1806V29.7581H40.6526ZM40.4166 26.6312H37.4667V27.1032H40.4166V26.6312ZM37.4667 26.6312C36.0957 26.6312 35.0236 26.9587 34.2948 27.6553L34.6209 27.9965C35.2294 27.4149 36.1632 27.1032 37.4667 27.1032V26.6312ZM34.2948 27.6553C33.5885 28.3305 33.2189 29.1021 33.2189 29.9645H33.6909C33.6909 29.2537 33.99 28.5996 34.6209 27.9965L34.2948 27.6553ZM33.2189 29.9645C33.2189 30.7147 33.4537 31.3226 33.9496 31.7508L34.2581 31.3936C33.8887 31.0746 33.6909 30.6106 33.6909 29.9645H33.2189ZM33.952 31.7528C34.4451 32.1675 35.1638 32.3539 36.0655 32.3539V31.882C35.217 31.882 34.628 31.7046 34.2558 31.3916L33.952 31.7528ZM47.2933 34.2418H47.0573V34.4778H47.2933V34.2418ZM47.2933 32.3834L47.2533 32.1508L47.0573 32.1845V32.3834H47.2933ZM49.6974 31.9704L49.7374 32.203L49.9334 32.1694V31.9704H49.6974ZM49.6974 20.5693H49.9334V20.3703L49.7374 20.3367L49.6974 20.5693ZM47.2933 20.1563H47.0573V20.3552L47.2533 20.3889L47.2933 20.1563ZM47.2933 18.2831V18.0471H47.0573V18.2831H47.2933ZM52.2933 18.2831L52.5275 18.2543L52.502 18.0471H52.2933V18.2831ZM52.544 20.3185L52.7787 20.2938L52.7782 20.2897L52.544 20.3185ZM52.5735 20.5988L52.3388 20.6235L52.4172 21.3677L52.7799 20.7131L52.5735 20.5988ZM54.2402 18.6813L54.106 18.4872L54.1047 18.4882L54.2402 18.6813ZM57.4555 18.0766L57.412 18.3087L57.4202 18.31L57.4555 18.0766ZM58.1487 18.2241L58.3824 18.2573L58.4095 18.0667L58.2281 18.0019L58.1487 18.2241ZM57.7653 20.9232L57.7515 21.1588L57.9683 21.1715L57.9989 20.9564L57.7653 20.9232ZM55.7446 20.8052L55.7295 21.0408L55.7309 21.0408L55.7446 20.8052ZM53.8125 21.3362L53.9546 21.5246L53.9568 21.5229L53.8125 21.3362ZM52.603 22.9291L52.3859 22.8366L52.367 22.8809V22.9291H52.603ZM52.603 31.9704H52.367V32.1694L52.5631 32.203L52.603 31.9704ZM55.0071 32.3834H55.2431V32.1845L55.0471 32.1508L55.0071 32.3834ZM55.0071 34.2418V34.4778H55.2431V34.2418H55.0071ZM47.5293 34.2418V32.3834H47.0573V34.2418H47.5293ZM47.3332 32.616L49.7374 32.203L49.6575 31.7379L47.2533 32.1508L47.3332 32.616ZM49.9334 31.9704V20.5693H49.4614V31.9704H49.9334ZM49.7374 20.3367L47.3332 19.9237L47.2533 20.3889L49.6575 20.8018L49.7374 20.3367ZM47.5293 20.1563V18.2831H47.0573V20.1563H47.5293ZM47.2933 18.5191H52.2933V18.0471H47.2933V18.5191ZM52.0591 18.312L52.3098 20.3474L52.7782 20.2897L52.5275 18.2543L52.0591 18.312ZM52.3093 20.3432L52.3388 20.6235L52.8082 20.574L52.7787 20.2938L52.3093 20.3432ZM52.7799 20.7131C53.2176 19.9233 53.7505 19.3131 54.3757 18.8745L54.1047 18.4882C53.4122 18.9739 52.834 19.6419 52.3671 20.4844L52.7799 20.7131ZM54.3744 18.8755C55.0014 18.4421 55.7161 18.2241 56.5263 18.2241V17.7521C55.6256 17.7521 54.8162 17.9963 54.106 18.4872L54.3744 18.8755ZM56.5263 18.2241C56.8158 18.2241 57.111 18.2521 57.412 18.3086L57.499 17.8447C57.1707 17.7831 56.8464 17.7521 56.5263 17.7521V18.2241ZM57.4202 18.31C57.7435 18.3589 57.9549 18.4055 58.0694 18.4464L58.2281 18.0019C58.0673 17.9444 57.8166 17.8926 57.4909 17.8433L57.4202 18.31ZM57.9151 18.1909L57.5316 20.89L57.9989 20.9564L58.3824 18.2573L57.9151 18.1909ZM57.779 20.6877L55.7584 20.5697L55.7309 21.0408L57.7515 21.1588L57.779 20.6877ZM55.7597 20.5697C54.9455 20.5175 54.2421 20.7055 53.6681 21.1496L53.9568 21.5229C54.4251 21.1606 55.0098 20.9946 55.7295 21.0407L55.7597 20.5697ZM53.6703 21.1479C53.1126 21.5687 52.6854 22.1344 52.3859 22.8366L52.8201 23.0217C53.0909 22.3866 53.47 21.8903 53.9546 21.5246L53.6703 21.1479ZM52.367 22.9291V31.9704H52.839V22.9291H52.367ZM52.5631 32.203L54.9672 32.616L55.0471 32.1508L52.643 31.7379L52.5631 32.203ZM54.7712 32.3834V34.2418H55.2431V32.3834H54.7712ZM55.0071 34.0058H47.2933V34.4778H55.0071V34.0058ZM59.9664 34.2418H59.7305V34.4778H59.9664V34.2418ZM59.9664 32.3834L59.9265 32.1508L59.7305 32.1845V32.3834H59.9664ZM62.3706 31.9704L62.4105 32.203L62.6066 32.1694V31.9704H62.3706ZM62.3706 20.5693H62.6066V20.3703L62.4105 20.3367L62.3706 20.5693ZM59.9664 20.1563H59.7305V20.3552L59.9265 20.3889L59.9664 20.1563ZM59.9664 18.2831V18.0471H59.7305V18.2831H59.9664ZM65.2762 18.2831H65.5122V18.0471H65.2762V18.2831ZM65.2762 31.9704H65.0402V32.1694L65.2362 32.203L65.2762 31.9704ZM67.6803 32.3834H67.9163V32.1845L67.7203 32.1508L67.6803 32.3834ZM67.6803 34.2418V34.4778H67.9163V34.2418H67.6803ZM62.2231 14.3451H61.9871V14.581H62.2231V14.3451ZM62.2231 11.233V10.997H61.9871V11.233H62.2231ZM65.2762 11.233H65.5122V10.997H65.2762V11.233ZM65.2762 14.3451V14.581H65.5122V14.3451H65.2762ZM60.2024 34.2418V32.3834H59.7305V34.2418H60.2024ZM60.0064 32.616L62.4105 32.203L62.3306 31.7379L59.9265 32.1508L60.0064 32.616ZM62.6066 31.9704V20.5693H62.1346V31.9704H62.6066ZM62.4105 20.3367L60.0064 19.9237L59.9265 20.3889L62.3306 20.8018L62.4105 20.3367ZM60.2024 20.1563V18.2831H59.7305V20.1563H60.2024ZM59.9664 18.5191H65.2762V18.0471H59.9664V18.5191ZM65.0402 18.2831V31.9704H65.5122V18.2831H65.0402ZM65.2362 32.203L67.6404 32.616L67.7203 32.1508L65.3161 31.7379L65.2362 32.203ZM67.4443 32.3834V34.2418H67.9163V32.3834H67.4443ZM67.6803 34.0058H59.9664V34.4778H67.6803V34.0058ZM62.4591 14.3451V11.233H61.9871V14.3451H62.4591ZM62.2231 11.4689H65.2762V10.997H62.2231V11.4689ZM65.0402 11.233V14.3451H65.5122V11.233H65.0402ZM65.2762 14.1091H62.2231V14.581H65.2762V14.1091ZM73.2296 33.5191L73.0999 33.7163L73.1021 33.7177L73.2296 33.5191ZM70.7665 30.643L70.553 30.7437L70.5534 30.7444L70.7665 30.643ZM70.7665 21.9262L70.9796 22.0276L70.9799 22.0269L70.7665 21.9262ZM73.2296 19.0353L73.1008 18.8376L73.0999 18.8381L73.2296 19.0353ZM80.8255 19.0353L80.6958 19.2325L80.6967 19.2331L80.8255 19.0353ZM83.3033 21.9114L83.5164 21.81L83.3033 21.9114ZM83.3033 30.6578L83.5164 30.7592L83.5168 30.7585L83.3033 30.6578ZM79.3653 31.528L79.5138 31.7114L79.5141 31.7111L79.3653 31.528ZM80.7812 29.4483L80.5596 29.3671L80.5591 29.3685L80.7812 29.4483ZM80.7812 23.1209L80.5588 23.1999L80.5599 23.2029L80.7812 23.1209ZM79.3653 21.0412L79.2165 21.2244L79.2182 21.2258L79.3653 21.0412ZM74.6898 21.0412L74.8368 21.2258L74.8386 21.2244L74.6898 21.0412ZM73.2738 23.1209L73.4959 23.2007L73.4962 23.1999L73.2738 23.1209ZM73.2738 29.4483L73.0515 29.5274L73.0518 29.5282L73.2738 29.4483ZM74.6898 31.528L74.5409 31.7111L74.5441 31.7136L74.6898 31.528ZM77.0496 34.3156C75.6126 34.3156 74.3851 33.9808 73.3571 33.3206L73.1021 33.7177C74.2176 34.4341 75.5368 34.7876 77.0496 34.7876V34.3156ZM73.3592 33.3219C72.3356 32.649 71.5424 31.7245 70.9796 30.5416L70.5534 30.7444C71.1508 32.0001 71.9997 32.993 73.0999 33.7163L73.3592 33.3219ZM70.9799 30.5423C70.4168 29.3493 70.1322 27.9834 70.1322 26.4395H69.6603C69.6603 28.0421 69.9559 29.4785 70.553 30.7437L70.9799 30.5423ZM70.1322 26.4395V26.115H69.6603V26.4395H70.1322ZM70.1322 26.115C70.1322 24.571 70.4168 23.2104 70.9796 22.0276L70.5534 21.8248C69.9559 23.0806 69.6603 24.5124 69.6603 26.115H70.1322ZM70.9799 22.0269C71.5428 20.8342 72.3361 19.9051 73.3592 19.2325L73.0999 18.8381C71.9992 19.5618 71.1504 20.5599 70.553 21.8255L70.9799 22.0269ZM73.3584 19.2331C74.3868 18.5632 75.6041 18.2241 77.0201 18.2241V17.7521C75.5256 17.7521 74.216 18.1112 73.1008 18.8376L73.3584 19.2331ZM77.0201 18.2241C78.4566 18.2241 79.6783 18.5636 80.6958 19.2325L80.9551 18.8381C79.8488 18.1108 78.5336 17.7521 77.0201 17.7521V18.2241ZM80.6967 19.2331C81.7299 19.9061 82.5277 20.8305 83.0902 22.0128L83.5164 21.81C82.9187 20.5538 82.0645 19.5608 80.9543 18.8376L80.6967 19.2331ZM83.0902 22.0128C83.6529 23.1954 83.9376 24.561 83.9376 26.115H84.4095C84.4095 24.5028 84.114 23.066 83.5164 21.81L83.0902 22.0128ZM83.9376 26.115V26.4395H84.4095V26.115H83.9376ZM83.9376 26.4395C83.9376 27.9934 83.6529 29.3642 83.0899 30.557L83.5168 30.7585C84.114 29.4931 84.4095 28.0517 84.4095 26.4395H83.9376ZM83.0902 30.5564C82.5276 31.739 81.7347 32.6581 80.7119 33.3211L80.9686 33.7172C82.0696 33.0035 82.9188 32.0151 83.5164 30.7592L83.0902 30.5564ZM80.7119 33.3211C79.6939 33.9809 78.4765 34.3156 77.0496 34.3156V34.7876C78.5529 34.7876 79.8627 34.4339 80.9686 33.7172L80.7119 33.3211ZM77.0496 32.5162C78.0189 32.5162 78.8457 32.2522 79.5138 31.7114L79.2168 31.3445C78.6459 31.8067 77.9289 32.0442 77.0496 32.0442V32.5162ZM79.5141 31.7111C80.1814 31.1689 80.6763 30.4377 81.0033 29.5282L80.5591 29.3685C80.2569 30.2092 79.8077 30.8644 79.2165 31.3448L79.5141 31.7111ZM81.0028 29.5296C81.3384 28.6142 81.5039 27.583 81.5039 26.4395H81.032C81.032 27.5378 80.873 28.5126 80.5597 29.3671L81.0028 29.5296ZM81.5039 26.4395V26.115H81.032V26.4395H81.5039ZM81.5039 26.115C81.5039 24.9715 81.3384 23.9449 81.0025 23.0388L80.5599 23.2029C80.873 24.0471 81.032 25.0166 81.032 26.115H81.5039ZM81.0036 23.0418C80.6767 22.1224 80.1815 21.3899 79.5124 20.8567L79.2182 21.2258C79.8076 21.6955 80.2565 22.3494 80.5589 23.1999L81.0036 23.0418ZM79.5141 20.8581C78.8365 20.3075 77.9998 20.0383 77.0201 20.0383V20.5103C77.9087 20.5103 78.6355 20.7523 79.2165 21.2244L79.5141 20.8581ZM77.0201 20.0383C76.0497 20.0383 75.2181 20.3079 74.541 20.8581L74.8386 21.2244C75.42 20.752 76.1421 20.5103 77.0201 20.5103V20.0383ZM74.5427 20.8567C73.8735 21.3899 73.3784 22.1224 73.0515 23.0418L73.4962 23.1999C73.7986 22.3494 74.2474 21.6955 74.8368 21.2258L74.5427 20.8567ZM73.0518 23.041C72.7262 23.9464 72.5659 24.9722 72.5659 26.115H73.0378C73.0378 25.0158 73.1921 24.0456 73.4959 23.2007L73.0518 23.041ZM72.5659 26.115V26.4395H73.0378V26.115H72.5659ZM72.5659 26.4395C72.5659 27.5823 72.7262 28.6127 73.0515 29.5274L73.4962 29.3693C73.1921 28.5141 73.0378 27.5385 73.0378 26.4395H72.5659ZM73.0518 29.5282C73.3788 30.4377 73.8736 31.1689 74.541 31.7111L74.8386 31.3448C74.2473 30.8644 73.7982 30.2092 73.4959 29.3685L73.0518 29.5282ZM74.5441 31.7136C75.2309 32.2525 76.071 32.5162 77.0496 32.5162V32.0442C76.1601 32.0442 75.4269 31.8064 74.8354 31.3423L74.5441 31.7136Z" fill="white"/>
<path d="M53.8966 18.1297C55.2541 25.6298 52.7666 31.328 51.4465 33.1365C50.6809 33.749 49.1496 34.3615 49.1496 31.9115C52.2632 25.3269 52.2122 19.9673 52.2122 18.1297C52.2122 16.3164 51.2254 11.549 50.5788 9.37112C50.9701 9.33709 52.5948 10.9373 53.8966 18.1297Z" fill="white" stroke="white" stroke-width="0.102087"/>
<path d="M61.4 3.17399C60.8556 2.86773 59.4706 2.34709 58.2864 2.7146C59.3481 2.51043 60.8045 2.93579 61.4 3.17399Z" fill="white" stroke="white" stroke-width="0.102087"/>
<path d="M53.8966 9.55444C53.4474 10.7795 52.6205 11.4601 52.2632 11.6472C52.2273 11.545 52.1799 11.4235 52.1221 11.2899C52.7441 11.0041 53.3942 9.80965 53.6414 9.24818C54.3764 6.51225 56.2616 5.07963 57.1124 4.70531C60.0525 2.94942 63.9522 4.1098 65.5345 4.90948C61.5531 1.59166 57.7249 1.23436 55.2238 1.54062C52.7226 1.84688 51.2934 4.14383 50.8851 5.41992C50.5584 6.44079 50.5108 8.39745 50.5278 9.24818L50.0173 8.6867C49.9833 6.93421 50.589 3.10255 53.2841 1.79583C53.9817 1.35346 56.1323 0.621834 59.1541 1.23436C62.9313 2.00001 65.8408 4.45009 66.2491 5.82827C64.3095 4.19488 61.4511 3.93966 59.001 4.29696C56.4171 4.67378 54.4581 8.02313 53.8966 9.55444Z" fill="white"/>
<path d="M50.5278 9.24818L50.0173 8.6867C49.9833 6.93421 50.589 3.10255 53.2841 1.79583C53.9817 1.35346 56.1323 0.621834 59.1541 1.23436C62.9313 2.00001 65.8408 4.45009 66.2491 5.82827C64.3095 4.19488 61.4511 3.93966 59.001 4.29696C56.4171 4.67378 54.4581 8.02313 53.8966 9.55444C53.4474 10.7795 52.6205 11.4601 52.2632 11.6472C52.2273 11.545 52.1799 11.4235 52.1221 11.2899M50.5278 9.24818C51.2461 9.59022 51.8235 10.6008 52.1221 11.2899M50.5278 9.24818C50.5108 8.39745 50.5584 6.44079 50.8851 5.41992C51.2934 4.14383 52.7226 1.84688 55.2238 1.54062C57.7249 1.23436 61.5531 1.59166 65.5345 4.90948C63.9522 4.1098 60.0525 2.94942 57.1124 4.70531C56.2616 5.07963 54.3764 6.51225 53.6414 9.24818C53.3942 9.80965 52.7441 11.0041 52.1221 11.2899" stroke="white" stroke-width="0.102087"/>
<path d="M56.4488 3.174C54.9725 3.67913 52.3037 5.71055 52.3654 8.83982C52.7737 5.89972 55.2238 3.85458 56.4488 3.174Z" fill="white" stroke="white" stroke-width="0.102087"/>
<path d="M51.0893 11.5962C49.8132 10.8646 46.5974 9.65652 43.9432 10.6774C40.6254 11.9535 40.3701 12.8723 39.4003 14.0463C38.4305 15.2203 35.47 16.8332 31.3865 16.5474C31.931 16.3092 33.2343 15.1182 34.0918 12.2597C35.1637 8.6867 37.1034 7.30853 40.3191 7.05331C43.5348 6.79809 45.6276 6.74705 50.1194 8.89087L50.5278 9.35027L50.8085 10.4732C50.4206 9.57486 50.1194 9.28221 50.0174 9.24818C46.4443 7.56375 44.7088 7.0677 40.3191 7.35957C35.9305 7.65137 35.1131 10.6758 34.6026 12.5645L34.6022 12.566C34.1939 14.0769 33.2411 15.6456 32.8157 16.2411C33.9557 16.1901 36.5521 15.7715 37.818 14.5057C39.4003 12.9233 40.0639 12.1577 42.0035 10.9837C43.9432 9.80966 47.4652 9.75862 48.7413 10.218C49.7621 10.5855 50.732 11.2899 51.0893 11.5962Z" fill="white"/>
<path d="M51.0893 11.5962C49.8132 10.8646 46.5974 9.65652 43.9432 10.6774C40.6254 11.9535 40.3701 12.8723 39.4003 14.0463C38.4305 15.2203 35.47 16.8332 31.3865 16.5474C31.931 16.3092 33.2343 15.1182 34.0918 12.2597C35.1637 8.6867 37.1034 7.30853 40.3191 7.05331C43.5348 6.79809 45.6276 6.74705 50.1194 8.89087L50.5278 9.35027L50.8085 10.4732M51.0893 11.5962L50.8085 10.4732M51.0893 11.5962C50.732 11.2899 49.7621 10.5855 48.7413 10.218C47.4652 9.75862 43.9432 9.80966 42.0035 10.9837C40.0639 12.1577 39.4003 12.9233 37.818 14.5057C36.5521 15.7715 33.9557 16.1901 32.8157 16.2411C33.2411 15.6456 34.1939 14.0769 34.6022 12.566M34.6022 12.566L34.6026 12.5645M34.6022 12.566C34.6024 12.5655 34.6025 12.565 34.6026 12.5645M50.8085 10.4732C50.4206 9.57486 50.1194 9.28221 50.0174 9.24818C46.4443 7.56375 44.7088 7.0677 40.3191 7.35957C35.9305 7.65137 35.1131 10.6758 34.6026 12.5645" stroke="white" stroke-width="0.102087"/>
<path d="M48.1288 8.89087C46.5805 8.73774 43.3409 8.55398 42.7692 9.044C43.4226 8.79899 46.6145 8.83983 48.1288 8.89087Z" fill="white" stroke="white" stroke-width="0.102087"/>
<path d="M40.0639 9.50339C39.0771 9.91174 36.9605 11.0347 36.3888 12.2597C35.8742 13.3624 35.4038 14.0239 35.1784 14.2816C35.1558 14.3063 35.1339 14.33 35.1127 14.3525C35.1314 14.3338 35.1534 14.3102 35.1784 14.2816C35.7194 13.6903 36.6522 12.5047 36.8482 12.2597C37.1053 11.9384 38.7368 10.167 40.0639 9.50339Z" fill="white" stroke="white" stroke-width="0.102087"/>
</svg>
