<svg viewBox="0 0 80 80" fill="none" xmlns="http://www.w3.org/2000/svg">
<path fill-rule="evenodd" clip-rule="evenodd" d="M13.3333 13.3335H66.6667C70.3333 13.3335 73.3333 16.3335 73.3333 20.0002V60.0002C73.3333 63.6668 70.3333 66.6668 66.6667 66.6668H13.3333C9.66666 66.6668 6.66666 63.6668 6.66666 60.0002L6.69999 20.0002C6.69999 16.3335 9.66666 13.3335 13.3333 13.3335ZM41.7667 42.2335L65.3333 27.5002C66.1667 26.9668 66.6667 26.0668 66.6667 25.1002C66.6667 22.8668 64.2333 21.5335 62.3333 22.7002L40 36.6668L17.6667 22.7002C15.7667 21.5335 13.3333 22.8668 13.3333 25.1002C13.3333 26.0668 13.8333 26.9668 14.6667 27.5002L38.2333 42.2335C39.3 42.9002 40.7 42.9002 41.7667 42.2335Z" fill="black"/>
</svg>
