<svg viewBox="0 0 80 80" fill="none" xmlns="http://www.w3.org/2000/svg">
<path fill-rule="evenodd" clip-rule="evenodd" d="M40.0867 6.6665C21.7233 6.6665 6.84 21.5498 6.84 39.9132C6.84 54.5998 16.3633 67.0632 29.5767 71.4632C31.24 71.7632 31.84 70.7398 31.84 69.8598C31.84 69.0698 31.8133 66.9765 31.8033 64.2065C22.5533 66.2132 20.6 59.7465 20.6 59.7465C19.0933 55.9065 16.91 54.8832 16.91 54.8832C13.8933 52.8198 17.14 52.8665 17.14 52.8665C20.48 53.0998 22.23 56.2932 22.23 56.2932C25.1967 61.3732 30.0167 59.9065 31.9033 59.0565C32.2067 56.9065 33.0733 55.4398 34.02 54.6098C26.64 53.7732 18.88 50.9198 18.88 38.1765C18.88 34.5532 20.1767 31.5798 22.2933 29.2598C21.9567 28.4165 20.8067 25.0332 22.6233 20.4598C22.6233 20.4598 25.4133 19.5632 31.7633 23.8632C34.4233 23.1265 37.26 22.7565 40.0833 22.7432C42.9133 22.7565 45.7533 23.1265 48.4033 23.8632C54.7567 19.5598 57.5433 20.4598 57.5433 20.4598C59.36 25.0332 58.22 28.4165 57.8733 29.2598C60.0067 31.5798 61.2867 34.5498 61.2867 38.1765C61.2867 50.9532 53.52 53.7598 46.1133 54.5832C47.2967 55.6098 48.3633 57.6365 48.3633 60.7365C48.3633 65.1832 48.3233 68.7698 48.3233 69.8598C48.3233 70.7498 48.9167 71.7832 50.6133 71.4565C63.82 67.0498 73.3333 54.5965 73.3333 39.9132C73.3333 21.5498 58.45 6.6665 40.0867 6.6665Z" fill="black"/>
</svg>
