<svg viewBox="0 0 80 80" fill="none" xmlns="http://www.w3.org/2000/svg">
<path d="M39.9967 24.5898C31.4833 24.5898 24.5867 31.4898 24.5867 39.9998C24.5867 48.5132 31.4833 55.4132 39.9967 55.4132C48.5033 55.4132 55.4067 48.5132 55.4067 39.9998C55.4067 31.4898 48.5033 24.5898 39.9967 24.5898ZM39.9967 50.0132C34.4667 50.0132 29.9833 45.5298 29.9833 40.0032C29.9833 34.4732 34.4667 29.9932 39.9967 29.9932C45.5267 29.9932 50.0033 34.4732 50.0033 40.0032C50.0033 45.5298 45.5267 50.0132 39.9967 50.0132Z" fill="black"/>
<path d="M56.02 27.6168C58.0045 27.6168 59.6133 26.0081 59.6133 24.0235C59.6133 22.039 58.0045 20.4302 56.02 20.4302C54.0355 20.4302 52.4267 22.039 52.4267 24.0235C52.4267 26.0081 54.0355 27.6168 56.02 27.6168Z" fill="black"/>
<path d="M68.4433 20.3699C66.88 16.3399 63.6967 13.1533 59.6667 11.5966C57.3367 10.7199 54.8733 10.2499 52.38 10.1966C49.17 10.0566 48.1533 10.0166 40.0133 10.0166C31.8733 10.0166 30.83 10.0166 27.6467 10.1966C25.16 10.2466 22.6967 10.7166 20.3667 11.5966C16.3333 13.1533 13.15 16.3399 11.59 20.3699C10.7133 22.7033 10.2433 25.1633 10.1933 27.6566C10.05 30.8633 10.0067 31.8799 10.0067 40.0233C10.0067 48.1633 10.0067 49.1999 10.1933 52.3899C10.2433 54.8833 10.7133 57.3433 11.59 59.6799C13.1533 63.7066 16.3367 66.8933 20.37 68.4533C22.69 69.3599 25.1533 69.8733 27.6533 69.9533C30.8633 70.0933 31.88 70.1366 40.02 70.1366C48.16 70.1366 49.2033 70.1366 52.3867 69.9533C54.8767 69.9033 57.34 69.4299 59.6733 68.5566C63.7033 66.9933 66.8867 63.8099 68.45 59.7799C69.3266 57.4466 69.7966 54.9866 69.8466 52.4933C69.99 49.2866 70.0333 48.2699 70.0333 40.1266C70.0333 31.9833 70.0333 30.9499 69.8466 27.7599C69.8033 25.2333 69.3367 22.7299 68.4433 20.3699ZM64.3833 52.1433C64.36 54.0633 64.0133 55.9666 63.3466 57.7699C62.33 60.3933 60.26 62.4666 57.64 63.4733C55.8567 64.1366 53.9767 64.4833 52.0733 64.5099C48.9067 64.6566 48.0133 64.6933 39.8933 64.6933C31.7667 64.6933 30.9367 64.6933 27.71 64.5099C25.8133 64.4866 23.9267 64.1366 22.1467 63.4733C19.5167 62.4699 17.4333 60.3966 16.4167 57.7699C15.7633 55.9899 15.41 54.1066 15.38 52.2066C15.2367 49.0399 15.2033 48.1466 15.2033 40.0266C15.2033 31.9033 15.2033 31.0733 15.38 27.8433C15.4033 25.9233 15.75 24.0233 16.4167 22.2199C17.4333 19.5899 19.5167 17.5199 22.1467 16.5133C23.9267 15.8533 25.8133 15.5033 27.71 15.4766C30.88 15.3333 31.77 15.2933 39.8933 15.2933C48.0167 15.2933 48.85 15.2933 52.0733 15.4766C53.9767 15.4999 55.8567 15.8499 57.64 16.5133C60.26 17.5233 62.33 19.5966 63.3466 22.2199C64 23.9999 64.3533 25.8833 64.3833 27.7833C64.5266 30.9533 64.5633 31.8433 64.5633 39.9666C64.5633 48.0866 64.5633 48.9599 64.42 52.1466H64.3833V52.1433Z" fill="black"/>
</svg>
