<svg viewBox="0 0 80 80" fill="none" xmlns="http://www.w3.org/2000/svg">
<path d="M16.61 23.99C20.638 23.99 23.9033 20.7246 23.9033 16.6967C23.9033 12.6687 20.638 9.40332 16.61 9.40332C12.582 9.40332 9.31668 12.6687 9.31668 16.6967C9.31668 20.7246 12.582 23.99 16.61 23.99Z" fill="black"/>
<path d="M30.79 29.5166V69.9799H43.3533V49.9699C43.3533 44.6899 44.3467 39.5766 50.8933 39.5766C57.35 39.5766 57.43 45.6133 57.43 50.3033V69.9833H70V47.7933C70 36.8933 67.6533 28.5166 54.9133 28.5166C48.7967 28.5166 44.6967 31.8733 43.02 35.0499H42.85V29.5166H30.79ZM10.3167 29.5166H22.9V69.9799H10.3167V29.5166Z" fill="black"/>
</svg>
