<svg viewBox="0 0 80 80" fill="none" xmlns="http://www.w3.org/2000/svg">
<path d="M65.4433 26.6566C65.4866 27.2399 65.4866 27.8199 65.4866 28.3999C65.4866 46.1499 51.9766 66.6033 27.2866 66.6033C19.68 66.6033 12.6133 64.3999 6.66663 60.5733C7.74663 60.6966 8.78663 60.7399 9.90996 60.7399C16.1866 60.7399 21.9633 58.6199 26.58 55.0033C20.6766 54.8799 15.73 51.0133 14.0233 45.6933C14.8533 45.8166 15.6866 45.8999 16.56 45.8999C17.7633 45.8999 18.9733 45.7333 20.0966 45.4433C13.94 44.1966 9.32996 38.7933 9.32996 32.2666V32.0999C11.12 33.0966 13.1966 33.7199 15.3966 33.8033C11.78 31.3966 9.40996 27.2799 9.40996 22.6233C9.40996 20.1299 10.0733 17.8433 11.2366 15.8499C17.8466 23.9933 27.7833 29.3166 38.9233 29.8999C38.7166 28.8999 38.59 27.8633 38.59 26.8233C38.59 19.4233 44.5766 13.3966 52.0166 13.3966C55.8833 13.3966 59.3733 15.0166 61.8266 17.6366C64.86 17.0533 67.7666 15.9299 70.3466 14.3933C69.35 17.5099 67.2266 20.1299 64.4433 21.7933C67.1466 21.4999 69.7666 20.7533 72.1733 19.7133C70.3466 22.3733 68.0633 24.7433 65.4433 26.6566Z" fill="black"/>
</svg>
